<svg id="svg" version="1.1" xmlns="http://www.w3.org/2000/svg" xmlns:xlink="http://www.w3.org/1999/xlink" width="400" height="400" viewBox="0, 0, 400,400"><g id="svgg"><path id="path0" d="M191.992 73.463 C 136.933 79.120,96.061 123.479,94.656 179.102 C 93.360 230.439,130.972 276.258,182.813 286.493 C 237.254 297.242,291.194 263.209,306.589 208.398 C 317.218 170.557,305.086 128.866,275.329 100.977 C 266.290 92.504,250.587 82.824,240.818 79.703 C 239.960 79.429,238.730 78.973,238.086 78.690 C 229.103 74.744,205.537 72.071,191.992 73.463 M206.362 94.790 C 213.632 102.414,226.412 114.082,230.622 116.939 C 232.252 118.044,234.006 118.457,232.594 117.402 C 231.855 116.850,231.857 116.841,232.668 117.045 C 233.658 117.294,234.132 115.670,234.715 110.036 C 235.156 105.766,233.971 106.261,244.220 106.072 L 253.006 105.910 253.261 111.220 C 253.401 114.140,253.516 121.600,253.516 127.796 L 253.516 139.062 256.967 142.676 C 260.293 146.157,266.079 151.804,273.047 158.368 C 276.800 161.902,282.413 167.271,290.437 175.000 C 293.448 177.900,296.738 180.889,297.748 181.641 C 299.931 183.265,300.010 183.616,298.358 184.348 C 297.065 184.920,290.537 191.155,289.213 193.081 L 288.465 194.169 284.369 190.545 C 282.117 188.552,275.176 181.894,268.945 175.750 C 262.715 169.605,256.302 163.364,254.695 161.879 C 250.001 157.544,244.581 152.397,234.570 142.771 C 229.414 137.813,223.877 132.543,222.266 131.060 C 220.654 129.577,217.930 127.013,216.211 125.363 C 214.492 123.713,211.592 121.031,209.766 119.405 C 207.939 117.778,205.683 115.584,204.750 114.529 L 203.055 112.611 200.649 115.008 C 198.621 117.028,190.538 124.586,179.309 134.961 C 177.914 136.250,174.660 139.343,172.078 141.834 C 169.496 144.325,164.834 148.705,161.719 151.567 C 147.453 164.672,141.052 170.742,126.924 184.563 L 116.933 194.336 115.286 192.108 C 113.766 190.053,109.374 186.173,106.352 184.217 C 104.774 183.196,104.777 183.152,106.464 181.951 C 107.227 181.409,110.261 178.612,113.207 175.736 C 116.153 172.861,120.232 169.019,122.270 167.198 C 124.309 165.378,127.734 162.183,129.883 160.097 C 134.830 155.294,138.951 151.350,142.188 148.317 C 144.811 145.860,149.205 141.655,159.004 132.227 C 165.839 125.649,170.570 121.180,173.450 118.578 C 174.625 117.516,177.957 114.440,180.854 111.742 C 183.752 109.044,187.071 105.957,188.229 104.883 C 189.388 103.809,192.994 100.283,196.242 97.047 C 199.491 93.812,202.287 91.131,202.456 91.090 C 202.624 91.049,204.382 92.714,206.362 94.790 M210.434 130.801 C 214.471 134.851,219.619 139.888,221.875 141.994 C 224.131 144.100,228.965 148.751,232.617 152.329 C 236.270 155.907,240.752 160.219,242.578 161.911 C 244.404 163.604,248.277 167.285,251.183 170.092 C 254.090 172.899,258.573 177.225,261.144 179.706 C 263.716 182.187,266.476 184.616,267.276 185.104 L 268.732 185.990 268.544 211.452 C 268.440 225.456,268.274 240.957,268.173 245.898 L 267.991 254.883 264.757 257.730 C 256.017 265.425,243.413 272.289,231.026 276.100 C 224.719 278.040,223.836 278.263,223.560 277.987 C 223.416 277.843,223.285 263.401,223.270 245.894 L 223.242 214.063 203.645 214.063 C 192.867 214.063,183.770 213.956,183.430 213.825 C 182.870 213.610,182.813 216.593,182.813 245.857 C 182.813 276.329,182.774 278.125,182.129 278.123 C 180.387 278.116,172.241 275.618,166.536 273.342 C 157.507 269.738,151.539 266.139,139.921 257.293 L 136.418 254.626 136.126 240.301 C 135.835 225.995,136.120 191.375,136.567 186.883 C 136.788 184.655,136.890 184.461,138.195 183.758 C 138.960 183.346,141.206 181.514,143.187 179.688 C 148.531 174.759,169.327 155.216,175.194 149.609 C 178.005 146.924,182.582 142.688,185.367 140.196 C 188.151 137.705,193.154 132.946,196.484 129.622 C 199.814 126.297,202.664 123.546,202.817 123.507 C 202.970 123.469,206.398 126.751,210.434 130.801 M191.504 158.110 L 183.984 158.220 183.984 165.829 L 183.984 173.438 191.797 173.438 L 199.609 173.438 199.609 166.016 C 199.609 161.934,199.623 158.466,199.639 158.311 C 199.675 157.960,200.419 157.979,191.504 158.110 M205.470 165.960 C 205.469 173.051,205.536 173.886,206.087 173.675 C 206.426 173.544,210.030 173.438,214.094 173.438 L 221.484 173.438 221.484 165.723 L 221.484 158.008 213.478 158.008 L 205.471 158.008 205.470 165.960 M183.984 187.459 L 183.984 195.425 186.621 195.176 C 188.071 195.039,191.587 194.926,194.434 194.925 L 199.609 194.922 199.609 187.320 L 199.609 179.719 191.796 179.606 L 183.984 179.492 183.984 187.459 M205.469 187.305 L 205.470 195.117 213.477 195.117 L 221.485 195.117 221.485 187.418 L 221.484 179.718 213.476 179.605 L 205.468 179.492 205.469 187.305 M215.982 243.219 C 218.242 245.786,218.078 247.856,215.442 250.085 C 212.688 252.413,207.765 249.059,208.402 245.289 C 209.076 241.302,213.283 240.153,215.982 243.219 " stroke="none" fill="#2b4254" fill-rule="evenodd"></path><path id="path1" d="M0.391 199.382 C 0.391 309.042,0.497 399.042,0.628 399.382 C 0.844 399.944,18.813 400.000,200.432 400.000 L 400.000 400.000 400.000 200.000 L 400.000 0.000 200.195 0.000 L 0.391 0.000 0.391 199.382 M217.063 62.120 C 244.519 65.637,267.030 76.291,285.544 94.531 C 289.440 98.369,291.225 100.335,295.650 105.664 C 296.669 106.891,302.344 115.314,304.403 118.655 C 340.170 176.707,319.399 254.126,259.570 285.757 C 257.637 286.780,255.879 287.744,255.664 287.901 C 253.666 289.356,237.073 295.308,230.118 297.064 C 219.971 299.626,197.538 300.804,188.086 299.271 C 176.320 297.363,164.101 294.159,157.948 291.368 C 135.221 281.062,118.618 268.300,106.412 251.758 C 105.143 250.039,104.011 248.545,103.895 248.438 C 103.780 248.330,103.082 247.275,102.344 246.094 C 101.606 244.912,100.907 243.857,100.791 243.750 C 99.632 242.681,93.535 231.040,91.788 226.563 C 91.076 224.736,90.367 223.066,90.213 222.852 C 90.059 222.637,89.218 220.088,88.343 217.188 C 73.286 167.272,89.861 115.089,130.273 85.175 C 135.943 80.978,136.651 80.469,136.810 80.469 C 136.890 80.469,138.670 79.338,140.766 77.956 C 142.863 76.573,145.095 75.329,145.726 75.190 C 146.358 75.051,146.875 74.808,146.875 74.650 C 146.875 74.092,157.702 69.433,163.281 67.590 C 172.490 64.549,179.843 63.087,192.773 61.730 C 198.705 61.107,210.655 61.299,217.063 62.120 M206.938 72.933 C 207.424 73.026,208.127 73.022,208.501 72.925 C 208.874 72.827,208.477 72.750,207.617 72.755 C 206.758 72.759,206.452 72.839,206.938 72.933 M206.250 95.508 C 206.979 96.260,207.663 96.875,207.770 96.875 C 207.878 96.875,207.369 96.260,206.641 95.508 C 205.912 94.756,205.228 94.141,205.120 94.141 C 205.013 94.141,205.521 94.756,206.250 95.508 M195.099 98.535 L 193.555 100.195 195.215 98.651 C 196.759 97.215,197.055 96.875,196.759 96.875 C 196.695 96.875,195.948 97.622,195.099 98.535 M214.648 103.516 C 216.141 105.020,217.450 106.250,217.557 106.250 C 217.665 106.250,216.531 105.020,215.039 103.516 C 213.547 102.012,212.238 100.781,212.130 100.781 C 212.023 100.781,213.156 102.012,214.648 103.516 M124.207 105.762 L 121.680 108.398 124.316 105.871 C 125.767 104.480,126.953 103.294,126.953 103.234 C 126.953 102.946,126.555 103.313,124.207 105.762 M185.718 107.520 L 184.570 108.789 185.840 107.642 C 186.538 107.011,187.109 106.439,187.109 106.372 C 187.109 106.070,186.787 106.336,185.718 107.520 M281.250 106.763 C 281.250 106.830,281.821 107.401,282.520 108.032 L 283.789 109.180 282.642 107.910 C 281.572 106.727,281.250 106.461,281.250 106.763 M175.171 117.285 L 174.023 118.555 175.293 117.407 C 175.991 116.776,176.563 116.205,176.563 116.138 C 176.563 115.836,176.240 116.102,175.171 117.285 M206.641 116.138 C 206.641 116.205,207.212 116.776,207.910 117.407 L 209.180 118.555 208.032 117.285 C 206.963 116.102,206.641 115.836,206.641 116.138 M171.264 120.801 L 170.117 122.070 171.387 120.923 C 172.085 120.292,172.656 119.721,172.656 119.653 C 172.656 119.352,172.334 119.617,171.264 120.801 M192.749 121.973 L 191.602 123.242 192.871 122.095 C 194.054 121.025,194.320 120.703,194.018 120.703 C 193.951 120.703,193.380 121.274,192.749 121.973 M203.516 124.341 C 203.516 124.408,204.087 124.979,204.785 125.611 L 206.055 126.758 204.907 125.488 C 203.838 124.305,203.516 124.039,203.516 124.341 M164.041 127.637 L 162.695 129.102 164.160 127.755 C 164.966 127.015,165.625 126.356,165.625 126.291 C 165.625 125.992,165.294 126.273,164.041 127.637 M186.889 127.441 L 185.742 128.711 187.012 127.564 C 187.710 126.933,188.281 126.361,188.281 126.294 C 188.281 125.992,187.959 126.258,186.889 127.441 M219.531 128.247 C 219.531 128.314,220.103 128.886,220.801 129.517 L 222.070 130.664 220.923 129.395 C 219.854 128.211,219.531 127.945,219.531 128.247 M209.961 131.250 C 211.019 132.324,211.973 133.203,212.080 133.203 C 212.187 133.203,211.410 132.324,210.352 131.250 C 209.293 130.176,208.340 129.297,208.232 129.297 C 208.125 129.297,208.903 130.176,209.961 131.250 M253.242 132.422 C 253.242 133.604,253.315 134.087,253.405 133.496 C 253.494 132.905,253.494 131.938,253.405 131.348 C 253.315 130.757,253.242 131.240,253.242 132.422 M193.729 132.715 L 192.383 134.180 193.848 132.834 C 194.653 132.093,195.313 131.434,195.313 131.369 C 195.313 131.070,194.982 131.351,193.729 132.715 M224.219 132.617 C 224.948 133.369,225.632 133.984,225.739 133.984 C 225.847 133.984,225.338 133.369,224.609 132.617 C 223.881 131.865,223.196 131.250,223.089 131.250 C 222.982 131.250,223.490 131.865,224.219 132.617 M180.838 133.105 L 179.492 134.570 180.957 133.224 C 182.320 131.971,182.601 131.641,182.303 131.641 C 182.238 131.641,181.579 132.300,180.838 133.105 M156.239 135.059 L 153.711 137.695 156.348 135.168 C 157.798 133.777,158.984 132.591,158.984 132.531 C 158.984 132.243,158.587 132.609,156.239 135.059 M216.602 137.500 C 218.310 139.219,219.796 140.625,219.904 140.625 C 220.011 140.625,218.701 139.219,216.992 137.500 C 215.284 135.781,213.798 134.375,213.690 134.375 C 213.583 134.375,214.893 135.781,216.602 137.500 M187.671 138.379 L 186.523 139.648 187.793 138.501 C 188.976 137.432,189.242 137.109,188.940 137.109 C 188.873 137.109,188.302 137.681,187.671 138.379 M174.780 138.770 L 173.633 140.039 174.902 138.892 C 176.086 137.822,176.351 137.500,176.050 137.500 C 175.982 137.500,175.411 138.071,174.780 138.770 M183.573 142.090 L 182.227 143.555 183.691 142.209 C 184.497 141.468,185.156 140.809,185.156 140.744 C 185.156 140.445,184.826 140.726,183.573 142.090 M234.766 142.700 C 234.766 142.768,235.337 143.339,236.035 143.970 L 237.305 145.117 236.157 143.848 C 235.088 142.664,234.766 142.399,234.766 142.700 M259.766 146.289 C 260.933 147.471,261.975 148.438,262.083 148.438 C 262.190 148.438,261.323 147.471,260.156 146.289 C 258.989 145.107,257.947 144.141,257.839 144.141 C 257.732 144.141,258.599 145.107,259.766 146.289 M165.806 147.363 L 163.867 149.414 165.918 147.476 C 167.046 146.409,167.969 145.487,167.969 145.425 C 167.969 145.133,167.607 145.458,165.806 147.363 M232.813 152.930 C 235.492 155.615,237.771 157.813,237.879 157.813 C 237.986 157.813,235.882 155.615,233.203 152.930 C 230.524 150.244,228.244 148.047,228.137 148.047 C 228.029 148.047,230.133 150.244,232.813 152.930 M139.440 151.074 L 137.305 153.320 139.551 151.185 C 141.637 149.202,141.976 148.828,141.686 148.828 C 141.625 148.828,140.614 149.839,139.440 151.074 M268.555 154.688 C 269.394 155.547,270.168 156.250,270.276 156.250 C 270.383 156.250,269.784 155.547,268.945 154.688 C 268.106 153.828,267.332 153.125,267.224 153.125 C 267.117 153.125,267.716 153.828,268.555 154.688 M155.838 156.543 L 154.492 158.008 155.957 156.662 C 156.763 155.921,157.422 155.262,157.422 155.197 C 157.422 154.899,157.091 155.180,155.838 156.543 M250.391 157.544 C 250.391 157.611,250.962 158.183,251.660 158.814 L 252.930 159.961 251.782 158.691 C 250.713 157.508,250.391 157.242,250.391 157.544 M192.100 158.099 C 193.019 158.182,194.425 158.180,195.225 158.096 C 196.025 158.013,195.273 157.945,193.555 157.946 C 191.836 157.948,191.181 158.017,192.100 158.099 M238.281 158.325 C 238.281 158.393,238.853 158.964,239.551 159.595 L 240.820 160.742 239.673 159.473 C 238.604 158.289,238.281 158.024,238.281 158.325 M274.984 160.645 C 275.941 161.665,276.776 162.500,276.839 162.500 C 277.132 162.500,276.822 162.149,275.098 160.531 L 273.242 158.789 274.984 160.645 M150.781 161.133 C 149.832 162.100,149.144 162.891,149.251 162.891 C 149.359 162.891,150.223 162.100,151.172 161.133 C 152.121 160.166,152.809 159.375,152.702 159.375 C 152.594 159.375,151.730 160.166,150.781 161.133 M163.843 160.645 L 162.695 161.914 163.965 160.767 C 165.148 159.697,165.414 159.375,165.112 159.375 C 165.045 159.375,164.474 159.946,163.843 160.645 M183.700 160.938 C 183.700 161.904,183.776 162.300,183.869 161.816 C 183.963 161.333,183.963 160.542,183.869 160.059 C 183.776 159.575,183.700 159.971,183.700 160.938 M205.215 162.500 C 205.215 164.326,205.282 165.073,205.364 164.160 C 205.446 163.247,205.446 161.753,205.364 160.840 C 205.282 159.927,205.215 160.674,205.215 162.500 M199.716 161.719 C 199.716 162.686,199.792 163.081,199.885 162.598 C 199.978 162.114,199.978 161.323,199.885 160.840 C 199.792 160.356,199.716 160.752,199.716 161.719 M126.343 163.770 L 125.195 165.039 126.465 163.892 C 127.648 162.822,127.914 162.500,127.612 162.500 C 127.545 162.500,126.974 163.071,126.343 163.770 M247.461 167.188 C 250.032 169.766,252.224 171.875,252.332 171.875 C 252.439 171.875,250.423 169.766,247.852 167.188 C 245.280 164.609,243.088 162.500,242.981 162.500 C 242.874 162.500,244.890 164.609,247.461 167.188 M143.149 168.457 L 141.211 170.508 143.262 168.569 C 144.390 167.503,145.313 166.580,145.313 166.519 C 145.313 166.227,144.951 166.551,143.149 168.457 M284.180 169.531 C 285.455 170.820,286.587 171.875,286.694 171.875 C 286.802 171.875,285.846 170.820,284.570 169.531 C 283.295 168.242,282.163 167.188,282.056 167.188 C 281.948 167.188,282.904 168.242,284.180 169.531 M153.302 170.410 L 151.758 172.070 153.418 170.526 C 154.962 169.090,155.258 168.750,154.962 168.750 C 154.898 168.750,154.151 169.497,153.302 170.410 M199.700 170.703 C 199.700 171.455,199.780 171.763,199.879 171.387 C 199.977 171.011,199.977 170.396,199.879 170.020 C 199.780 169.644,199.700 169.951,199.700 170.703 M136.328 174.805 C 135.379 175.771,134.691 176.563,134.798 176.563 C 134.906 176.563,135.770 175.771,136.719 174.805 C 137.668 173.838,138.356 173.047,138.249 173.047 C 138.141 173.047,137.277 173.838,136.328 174.805 M290.234 175.195 C 291.401 176.377,292.444 177.344,292.551 177.344 C 292.659 177.344,291.792 176.377,290.625 175.195 C 289.458 174.014,288.415 173.047,288.308 173.047 C 288.201 173.047,289.067 174.014,290.234 175.195 M187.988 173.729 C 190.083 173.799,193.511 173.799,195.605 173.729 C 197.700 173.658,195.986 173.601,191.797 173.601 C 187.607 173.601,185.894 173.658,187.988 173.729 M216.895 173.722 C 217.700 173.806,219.019 173.806,219.824 173.722 C 220.630 173.638,219.971 173.569,218.359 173.569 C 216.748 173.569,216.089 173.638,216.895 173.722 M94.231 176.953 C 94.231 177.705,94.312 178.013,94.410 177.637 C 94.508 177.261,94.508 176.646,94.410 176.270 C 94.312 175.894,94.231 176.201,94.231 176.953 M248.047 176.351 C 248.812 177.329,250.822 179.336,251.782 180.078 C 252.936 180.972,249.971 177.662,248.633 176.563 C 247.845 175.916,247.653 175.847,248.047 176.351 M109.161 179.785 L 107.617 181.445 109.277 179.901 C 110.821 178.465,111.117 178.125,110.821 178.125 C 110.758 178.125,110.011 178.872,109.161 179.785 M196.387 179.573 C 196.870 179.666,197.661 179.666,198.145 179.573 C 198.628 179.479,198.232 179.403,197.266 179.403 C 196.299 179.403,195.903 179.479,196.387 179.573 M207.316 179.579 C 208.009 179.665,209.239 179.667,210.050 179.582 C 210.860 179.497,210.293 179.427,208.789 179.425 C 207.285 179.423,206.622 179.493,207.316 179.579 M217.100 179.583 C 218.019 179.666,219.425 179.665,220.225 179.581 C 221.025 179.497,220.273 179.429,218.555 179.431 C 216.836 179.432,216.181 179.501,217.100 179.583 M141.385 181.543 L 140.039 183.008 141.504 181.662 C 142.310 180.921,142.969 180.262,142.969 180.197 C 142.969 179.899,142.638 180.180,141.385 181.543 M94.279 184.570 C 94.278 186.504,94.344 187.344,94.426 186.438 C 94.508 185.531,94.509 183.949,94.428 182.922 C 94.347 181.895,94.280 182.637,94.279 184.570 M205.206 184.961 C 205.208 186.465,205.279 187.032,205.363 186.222 C 205.448 185.411,205.446 184.181,205.360 183.487 C 205.274 182.794,205.205 183.457,205.206 184.961 M279.297 185.742 C 280.026 186.494,280.710 187.109,280.817 187.109 C 280.925 187.109,280.416 186.494,279.688 185.742 C 278.959 184.990,278.274 184.375,278.167 184.375 C 278.060 184.375,278.568 184.990,279.297 185.742 M121.484 189.258 C 120.536 190.225,119.847 191.016,119.955 191.016 C 120.062 191.016,120.926 190.225,121.875 189.258 C 122.824 188.291,123.512 187.500,123.405 187.500 C 123.297 187.500,122.433 188.291,121.484 189.258 M310.247 189.453 C 310.247 190.205,310.327 190.513,310.426 190.137 C 310.524 189.761,310.524 189.146,310.426 188.770 C 310.327 188.394,310.247 188.701,310.247 189.453 M112.891 189.185 C 112.891 189.252,113.462 189.823,114.160 190.454 L 115.430 191.602 114.282 190.332 C 113.213 189.149,112.891 188.883,112.891 189.185 M136.419 193.359 C 136.419 194.111,136.499 194.419,136.597 194.043 C 136.696 193.667,136.696 193.052,136.597 192.676 C 136.499 192.300,136.419 192.607,136.419 193.359 M194.434 195.198 C 194.917 195.291,195.708 195.291,196.191 195.198 C 196.675 195.104,196.279 195.028,195.313 195.028 C 194.346 195.028,193.950 195.104,194.434 195.198 M136.078 216.016 C 136.078 218.057,136.144 218.892,136.225 217.871 C 136.305 216.851,136.305 215.181,136.225 214.160 C 136.144 213.140,136.078 213.975,136.078 216.016 M185.645 213.941 C 186.021 214.039,186.636 214.039,187.012 213.941 C 187.388 213.843,187.080 213.763,186.328 213.763 C 185.576 213.763,185.269 213.843,185.645 213.941 M182.513 216.016 C 182.513 216.768,182.593 217.075,182.691 216.699 C 182.789 216.323,182.789 215.708,182.691 215.332 C 182.593 214.956,182.513 215.264,182.513 216.016 M182.591 231.250 C 182.591 236.514,182.646 238.667,182.714 236.035 C 182.781 233.403,182.781 229.097,182.714 226.465 C 182.646 223.833,182.591 225.986,182.591 231.250 M268.075 239.063 C 268.075 240.029,268.151 240.425,268.244 239.941 C 268.338 239.458,268.338 238.667,268.244 238.184 C 268.151 237.700,268.075 238.096,268.075 239.063 M182.591 256.250 C 182.591 261.514,182.646 263.667,182.714 261.035 C 182.781 258.403,182.781 254.097,182.714 251.465 C 182.646 248.833,182.591 250.986,182.591 256.250 M267.669 250.000 C 267.669 250.752,267.749 251.060,267.847 250.684 C 267.946 250.308,267.946 249.692,267.847 249.316 C 267.749 248.940,267.669 249.248,267.669 250.000 M123.242 253.906 C 124.081 254.766,124.856 255.469,124.963 255.469 C 125.071 255.469,124.472 254.766,123.633 253.906 C 122.794 253.047,122.019 252.344,121.912 252.344 C 121.804 252.344,122.403 253.047,123.242 253.906 M277.726 257.715 L 274.414 261.133 277.832 257.821 C 281.007 254.745,281.428 254.297,281.144 254.297 C 281.085 254.297,279.547 255.835,277.726 257.715 M125.781 256.372 C 125.781 256.439,126.353 257.011,127.051 257.642 L 128.320 258.789 127.173 257.520 C 126.104 256.336,125.781 256.070,125.781 256.372 M182.558 275.000 C 182.558 276.826,182.626 277.573,182.708 276.660 C 182.790 275.747,182.790 274.253,182.708 273.340 C 182.626 272.427,182.558 273.174,182.558 275.000 M199.907 288.948 C 200.393 289.042,201.096 289.038,201.469 288.940 C 201.843 288.842,201.445 288.766,200.586 288.770 C 199.727 288.775,199.421 288.855,199.907 288.948 M205.957 288.941 C 206.333 289.039,206.948 289.039,207.324 288.941 C 207.700 288.843,207.393 288.763,206.641 288.763 C 205.889 288.763,205.581 288.843,205.957 288.941 " stroke="none" fill="#bcc4c6" fill-rule="evenodd"></path><path id="path2" d="M0.151 10.938 C 0.151 13.623,0.213 14.722,0.289 13.379 C 0.365 12.036,0.365 9.839,0.289 8.496 C 0.213 7.153,0.151 8.252,0.151 10.938 M197.266 61.744 C 142.573 64.409,99.066 100.298,85.933 153.580 C 80.431 175.904,82.844 206.476,91.623 225.669 C 92.148 226.818,92.578 227.858,92.578 227.981 C 92.578 229.256,101.367 244.652,104.421 248.726 C 105.349 249.964,107.146 252.370,108.414 254.073 C 110.903 257.415,120.963 267.774,123.828 269.946 C 124.795 270.678,125.832 271.514,126.134 271.803 C 126.435 272.093,127.666 273.054,128.868 273.940 C 130.071 274.827,131.230 275.689,131.445 275.856 C 131.660 276.023,132.363 276.572,133.008 277.074 C 133.652 277.577,135.059 278.579,136.133 279.301 C 137.207 280.022,138.174 280.725,138.281 280.862 C 139.315 282.180,153.682 289.407,160.352 291.962 C 161.855 292.538,163.438 293.174,163.867 293.374 C 167.067 294.866,179.519 297.721,188.672 299.061 C 200.748 300.830,222.856 299.422,232.227 296.288 C 233.086 296.001,235.371 295.295,237.305 294.721 C 263.464 286.943,286.945 269.521,301.790 246.875 C 302.847 245.264,303.799 243.857,303.906 243.750 C 304.014 243.643,304.440 242.939,304.853 242.188 C 305.267 241.436,305.729 240.732,305.880 240.625 C 306.140 240.440,311.481 229.547,313.159 225.781 C 314.669 222.389,318.265 210.437,319.505 204.688 C 325.067 178.891,320.756 149.192,308.014 125.525 C 304.809 119.573,297.037 107.595,294.673 104.964 C 294.053 104.275,292.854 102.832,292.008 101.758 C 290.179 99.434,283.031 92.266,280.273 89.989 C 279.199 89.102,277.768 87.916,277.093 87.353 C 274.366 85.079,264.371 78.125,263.830 78.125 C 263.692 78.125,262.589 77.531,261.379 76.805 C 257.030 74.194,250.502 71.085,245.703 69.339 C 244.092 68.752,242.158 68.043,241.406 67.763 C 232.498 64.444,209.603 60.576,203.711 61.395 C 203.496 61.424,200.596 61.582,197.266 61.744 M212.926 73.057 C 226.480 74.712,231.372 75.741,239.156 78.573 C 245.323 80.816,254.400 85.038,257.284 87.005 C 257.897 87.423,259.717 88.615,261.328 89.653 C 271.191 96.009,278.989 103.125,287.442 113.484 C 294.621 122.281,302.479 137.593,306.382 150.391 C 311.134 165.971,312.108 184.550,308.981 199.956 C 304.834 220.390,294.968 239.745,281.260 254.337 C 269.361 267.006,259.027 274.070,241.602 281.449 C 232.737 285.204,217.622 288.509,207.431 288.923 C 155.391 291.033,106.783 253.556,96.503 203.395 C 94.429 193.277,94.343 192.405,94.350 181.445 C 94.371 142.274,113.233 108.522,146.680 87.806 C 164.624 76.691,192.273 70.536,212.926 73.057 M199.987 94.141 C 193.829 100.277,180.923 112.495,176.001 116.849 C 171.833 120.534,162.415 129.440,153.911 137.738 C 150.363 141.199,146.318 145.053,144.922 146.303 C 143.525 147.553,138.164 152.656,133.008 157.643 C 127.852 162.630,122.666 167.551,121.484 168.578 C 120.303 169.605,116.650 172.999,113.368 176.121 C 110.085 179.242,106.949 182.092,106.397 182.453 L 105.395 183.111 106.437 183.841 C 108.588 185.346,113.120 189.019,114.022 189.987 C 114.536 190.539,115.135 190.882,115.352 190.748 C 115.578 190.608,115.625 190.700,115.462 190.963 C 115.305 191.218,115.584 191.905,116.090 192.506 L 117.002 193.589 117.973 192.413 C 118.508 191.765,118.908 191.119,118.863 190.976 C 118.818 190.834,119.019 190.740,119.311 190.769 C 119.603 190.797,123.071 187.656,127.017 183.789 C 130.964 179.922,135.684 175.367,137.506 173.666 C 139.329 171.966,142.754 168.712,145.117 166.435 C 147.480 164.159,152.754 159.234,156.836 155.492 C 160.918 151.750,167.507 145.599,171.478 141.824 C 183.553 130.346,185.480 128.542,192.773 121.888 C 196.641 118.360,200.512 114.714,201.377 113.785 L 202.950 112.097 207.432 116.498 C 209.897 118.918,212.793 121.662,213.867 122.596 C 214.941 123.530,217.227 125.640,218.946 127.284 C 220.664 128.928,225.584 133.613,229.877 137.695 C 234.171 141.777,239.708 147.065,242.182 149.447 C 244.656 151.828,249.659 156.574,253.301 159.993 C 256.942 163.413,265.069 171.294,271.361 177.508 C 277.652 183.721,283.217 189.082,283.726 189.422 C 284.235 189.761,285.512 190.868,286.564 191.881 C 287.951 193.217,288.531 193.567,288.675 193.155 C 289.004 192.216,295.373 185.938,297.374 184.580 L 299.240 183.313 297.128 181.719 C 295.967 180.842,293.442 178.576,291.518 176.683 C 289.594 174.791,284.695 170.081,280.631 166.218 C 276.567 162.355,271.668 157.697,269.745 155.867 C 260.669 147.232,254.175 140.725,253.675 139.765 C 253.239 138.928,253.125 136.340,253.125 127.229 C 253.125 120.914,253.010 113.611,252.870 110.999 L 252.614 106.250 244.098 106.250 L 235.582 106.250 235.388 107.520 C 235.281 108.218,235.086 109.932,234.954 111.328 C 234.201 119.313,232.734 120.271,228.189 115.743 C 227.902 115.457,227.023 114.742,226.236 114.154 C 223.482 112.099,215.948 105.025,207.420 96.491 L 202.534 91.602 199.987 94.141 M202.344 124.414 C 202.008 124.819,201.993 125.000,202.296 125.000 C 202.537 125.000,202.734 124.797,202.734 124.549 C 202.734 124.294,203.118 124.422,203.613 124.842 L 204.492 125.586 203.748 124.707 C 202.865 123.664,202.951 123.682,202.344 124.414 M201.509 136.046 C 198.349 138.846,194.585 142.069,192.967 143.359 C 192.025 144.111,190.333 145.605,189.207 146.680 C 181.856 153.695,176.202 158.820,174.673 159.855 C 174.172 160.194,172.589 161.588,171.158 162.951 C 169.726 164.314,167.281 166.540,165.725 167.898 C 164.170 169.256,161.596 171.629,160.007 173.171 C 158.418 174.714,154.426 178.525,151.137 181.641 C 147.847 184.756,143.743 188.681,142.017 190.364 C 140.292 192.047,138.406 193.703,137.827 194.045 C 136.286 194.955,136.335 193.927,136.340 225.280 L 136.344 254.270 138.097 255.477 C 139.061 256.140,140.052 256.558,140.298 256.406 C 140.553 256.248,140.640 256.301,140.499 256.528 C 140.364 256.747,140.626 257.258,141.082 257.663 C 141.683 258.196,141.958 258.263,142.083 257.908 C 142.177 257.638,142.434 257.528,142.653 257.664 C 142.917 257.827,142.904 258.002,142.613 258.181 C 141.974 258.576,145.104 260.993,145.873 260.698 C 146.825 260.333,146.592 259.684,145.605 259.953 C 144.812 260.170,144.797 260.150,145.448 259.744 C 146.480 259.100,147.371 259.987,146.407 260.699 C 145.612 261.287,145.822 261.511,149.156 263.639 C 150.869 264.732,151.309 264.872,151.614 264.419 C 151.905 263.987,151.961 264.030,151.872 264.617 C 151.630 266.206,169.092 274.822,174.832 275.947 C 175.247 276.028,176.729 276.394,178.125 276.759 C 179.521 277.124,181.062 277.497,181.547 277.587 L 182.431 277.751 182.423 245.614 L 182.415 213.477 183.297 213.559 C 183.783 213.604,193.015 213.719,203.813 213.815 L 223.447 213.989 223.447 245.862 C 223.447 263.392,223.582 277.734,223.747 277.734 C 224.381 277.734,233.796 274.918,233.983 274.673 C 234.091 274.530,234.443 274.361,234.766 274.295 C 237.088 273.825,247.660 269.057,251.418 266.786 C 258.531 262.487,261.593 260.187,260.869 259.684 C 260.502 259.428,260.579 259.385,261.133 259.533 C 261.710 259.688,262.657 259.058,264.760 257.118 L 267.605 254.492 267.768 245.898 C 267.858 241.172,268.043 228.340,268.180 217.383 L 268.429 197.461 260.257 189.258 C 249.051 178.010,234.283 163.520,226.614 156.250 C 223.101 152.920,219.398 149.404,218.383 148.438 C 217.369 147.471,215.251 145.537,213.678 144.141 C 209.925 140.811,208.872 139.844,205.984 137.078 C 203.170 134.383,203.341 134.423,201.509 136.046 M183.374 142.676 L 182.227 143.945 183.496 142.798 C 184.194 142.167,184.766 141.596,184.766 141.528 C 184.766 141.227,184.443 141.492,183.374 142.676 M200.000 165.835 L 200.000 173.828 191.813 173.828 L 183.625 173.828 183.512 165.918 C 183.449 161.567,183.425 157.920,183.458 157.813 C 183.491 157.705,187.227 157.668,191.759 157.730 L 200.000 157.843 200.000 165.835 M221.682 165.826 L 221.685 173.828 213.772 173.887 C 209.420 173.919,205.670 173.963,205.438 173.984 C 205.147 174.011,205.024 171.470,205.041 165.820 C 205.055 161.309,205.069 157.617,205.072 157.617 C 205.075 157.617,208.813 157.664,213.379 157.721 L 221.680 157.824 221.682 165.826 M192.535 179.297 L 199.850 179.297 199.726 187.313 L 199.601 195.328 191.551 195.418 L 183.501 195.508 183.687 189.648 C 183.790 186.426,183.758 182.781,183.616 181.550 C 183.358 179.301,183.590 178.782,184.700 179.133 C 184.986 179.223,188.512 179.297,192.535 179.297 M221.317 179.467 C 221.601 179.564,221.701 182.151,221.627 187.516 L 221.519 195.422 213.287 195.383 L 205.055 195.344 205.051 187.418 C 205.049 183.059,205.054 179.404,205.062 179.297 C 205.079 179.079,220.655 179.243,221.317 179.467 M266.602 185.720 C 267.246 186.267,267.949 186.710,268.164 186.704 C 268.613 186.692,267.367 185.673,266.211 185.107 C 265.781 184.897,265.957 185.172,266.602 185.720 M210.669 242.559 C 207.462 244.514,208.057 248.874,211.739 250.399 C 214.831 251.680,218.311 247.474,216.525 244.615 C 214.820 241.886,212.886 241.207,210.669 242.559 M263.032 256.836 C 262.908 257.158,263.002 257.422,263.239 257.422 C 263.477 257.422,263.672 257.265,263.672 257.073 C 263.672 256.881,263.960 256.613,264.313 256.478 C 265.149 256.157,264.275 257.281,263.270 257.819 C 262.701 258.123,262.423 257.167,262.841 256.348 C 263.044 255.949,263.210 256.372,263.032 256.836 M259.903 260.362 C 259.782 260.676,259.534 260.841,259.351 260.727 C 259.168 260.614,259.117 260.265,259.238 259.951 C 259.358 259.637,259.607 259.472,259.789 259.585 C 259.972 259.698,260.023 260.048,259.903 260.362 M251.696 266.113 C 251.597 266.274,251.263 266.406,250.954 266.406 C 250.644 266.406,250.391 266.582,250.391 266.797 C 250.391 267.012,250.193 267.188,249.952 267.188 C 249.636 267.188,249.640 267.035,249.968 266.640 C 250.318 266.219,250.306 266.051,249.919 265.916 C 249.641 265.820,249.968 265.758,250.645 265.780 C 251.322 265.802,251.795 265.952,251.696 266.113 M245.306 269.487 C 244.558 269.892,243.789 270.130,243.599 270.016 C 243.408 269.903,243.760 269.585,244.380 269.311 C 246.138 268.535,246.824 268.665,245.306 269.487 M242.578 270.703 C 241.809 271.200,240.904 271.200,241.211 270.703 C 241.344 270.488,241.837 270.315,242.308 270.318 C 243.004 270.323,243.054 270.395,242.578 270.703 M235.938 273.438 C 235.615 273.646,235.088 273.816,234.766 273.816 C 234.245 273.816,234.245 273.774,234.766 273.438 C 235.088 273.229,235.615 273.059,235.938 273.059 C 236.458 273.059,236.458 273.101,235.938 273.438 M0.136 371.875 C 0.136 373.701,0.204 374.448,0.286 373.535 C 0.368 372.622,0.368 371.128,0.286 370.215 C 0.204 369.302,0.136 370.049,0.136 371.875 M0.162 385.156 C 0.162 389.131,0.220 390.757,0.291 388.770 C 0.362 386.782,0.362 383.530,0.291 381.543 C 0.220 379.556,0.162 381.182,0.162 385.156 M0.128 396.289 C 0.130 397.793,0.201 398.360,0.285 397.550 C 0.370 396.739,0.368 395.509,0.282 394.816 C 0.196 394.122,0.126 394.785,0.128 396.289 " stroke="none" fill="#f9fafa" fill-rule="evenodd"></path><path id="path3" d="M201.465 72.942 C 202.378 73.025,203.872 73.025,204.785 72.942 C 205.698 72.860,204.951 72.793,203.125 72.793 C 201.299 72.793,200.552 72.860,201.465 72.942 M210.645 73.316 C 211.021 73.414,211.636 73.414,212.012 73.316 C 212.388 73.218,212.080 73.138,211.328 73.138 C 210.576 73.138,210.269 73.218,210.645 73.316 M246.875 82.227 C 247.412 82.534,248.027 82.785,248.242 82.785 C 248.457 82.785,248.193 82.534,247.656 82.227 C 247.119 81.920,246.504 81.668,246.289 81.668 C 246.074 81.668,246.338 81.920,246.875 82.227 M202.245 91.250 C 202.513 91.372,204.696 93.434,207.096 95.833 L 211.459 100.195 207.194 95.703 C 204.849 93.232,202.666 91.170,202.344 91.120 C 201.972 91.063,201.936 91.110,202.245 91.250 M199.207 94.434 L 196.680 97.070 199.316 94.543 C 201.766 92.195,202.132 91.797,201.844 91.797 C 201.784 91.797,200.598 92.983,199.207 94.434 M130.639 100.098 L 129.492 101.367 130.762 100.220 C 131.945 99.150,132.211 98.828,131.909 98.828 C 131.842 98.828,131.271 99.399,130.639 100.098 M191.776 101.465 L 190.430 102.930 191.895 101.584 C 192.700 100.843,193.359 100.184,193.359 100.119 C 193.359 99.820,193.029 100.101,191.776 101.465 M275.391 100.903 C 275.391 100.971,275.962 101.542,276.660 102.173 L 277.930 103.320 276.782 102.051 C 275.713 100.867,275.391 100.602,275.391 100.903 M127.323 103.027 L 125.977 104.492 127.441 103.146 C 128.805 101.893,129.086 101.563,128.788 101.563 C 128.722 101.563,128.063 102.222,127.323 103.027 M188.458 104.785 L 186.914 106.445 188.574 104.901 C 190.118 103.465,190.414 103.125,190.118 103.125 C 190.055 103.125,189.307 103.872,188.458 104.785 M279.492 105.078 C 280.331 105.938,281.106 106.641,281.213 106.641 C 281.321 106.641,280.722 105.938,279.883 105.078 C 279.044 104.219,278.269 103.516,278.162 103.516 C 278.054 103.516,278.653 104.219,279.492 105.078 M218.359 106.836 C 219.743 108.232,220.964 109.375,221.071 109.375 C 221.179 109.375,220.134 108.232,218.750 106.836 C 217.366 105.439,216.146 104.297,216.038 104.297 C 215.931 104.297,216.975 105.439,218.359 106.836 M247.941 106.141 C 248.634 106.228,249.864 106.229,250.675 106.144 C 251.485 106.060,250.918 105.989,249.414 105.988 C 247.910 105.986,247.247 106.055,247.941 106.141 M183.777 109.082 L 181.445 111.523 183.887 109.192 C 186.155 107.026,186.507 106.641,186.218 106.641 C 186.158 106.641,185.059 107.739,183.777 109.082 M121.655 108.691 L 120.508 109.961 121.777 108.814 C 122.476 108.183,123.047 107.611,123.047 107.544 C 123.047 107.242,122.725 107.508,121.655 108.691 M223.047 111.133 C 223.776 111.885,224.460 112.500,224.567 112.500 C 224.675 112.500,224.166 111.885,223.438 111.133 C 222.709 110.381,222.024 109.766,221.917 109.766 C 221.810 109.766,222.318 110.381,223.047 111.133 M178.125 114.258 C 177.176 115.225,176.488 116.016,176.595 116.016 C 176.703 116.016,177.567 115.225,178.516 114.258 C 179.464 113.291,180.153 112.500,180.045 112.500 C 179.938 112.500,179.074 113.291,178.125 114.258 M253.292 121.680 C 253.293 126.621,253.349 128.589,253.417 126.052 C 253.485 123.516,253.485 119.473,253.416 117.068 C 253.348 114.663,253.292 116.738,253.292 121.680 M200.181 115.332 L 198.242 117.383 200.293 115.444 C 202.199 113.643,202.523 113.281,202.231 113.281 C 202.170 113.281,201.247 114.204,200.181 115.332 M206.250 116.138 C 206.250 116.205,206.821 116.776,207.520 117.407 L 208.789 118.555 207.642 117.285 C 206.572 116.102,206.250 115.836,206.250 116.138 M232.594 117.402 C 233.474 118.060,232.768 118.161,231.517 117.557 C 230.693 117.158,230.690 117.165,231.422 117.752 C 231.839 118.086,232.499 118.359,232.887 118.359 C 233.899 118.359,233.761 117.321,232.715 117.057 C 231.866 116.843,231.862 116.855,232.594 117.402 M173.608 118.457 L 172.461 119.727 173.730 118.579 C 174.914 117.510,175.180 117.188,174.878 117.188 C 174.811 117.188,174.239 117.759,173.608 118.457 M167.969 123.633 C 167.020 124.600,166.331 125.391,166.439 125.391 C 166.546 125.391,167.411 124.600,168.359 123.633 C 169.308 122.666,169.997 121.875,169.889 121.875 C 169.782 121.875,168.918 122.666,167.969 123.633 M215.820 125.000 C 217.313 126.504,218.622 127.734,218.729 127.734 C 218.836 127.734,217.703 126.504,216.211 125.000 C 214.719 123.496,213.410 122.266,213.302 122.266 C 213.195 122.266,214.328 123.496,215.820 125.000 M189.634 125.098 L 187.695 127.148 189.746 125.210 C 190.874 124.144,191.797 123.221,191.797 123.159 C 191.797 122.868,191.435 123.192,189.634 125.098 M198.047 128.320 C 196.446 129.932,195.225 131.250,195.332 131.250 C 195.439 131.250,196.837 129.932,198.438 128.320 C 200.038 126.709,201.260 125.391,201.152 125.391 C 201.045 125.391,199.647 126.709,198.047 128.320 M209.570 130.469 C 211.711 132.617,213.550 134.375,213.657 134.375 C 213.765 134.375,212.101 132.617,209.961 130.469 C 207.821 128.320,205.981 126.563,205.874 126.563 C 205.767 126.563,207.430 128.320,209.570 130.469 M160.924 130.371 L 158.789 132.617 161.035 130.482 C 163.122 128.499,163.460 128.125,163.170 128.125 C 163.109 128.125,162.098 129.136,160.924 130.371 M183.203 131.055 C 182.254 132.021,181.566 132.813,181.673 132.813 C 181.781 132.813,182.645 132.021,183.594 131.055 C 184.543 130.088,185.231 129.297,185.124 129.297 C 185.016 129.297,184.152 130.088,183.203 131.055 M223.047 131.836 C 223.776 132.588,224.460 133.203,224.567 133.203 C 224.675 133.203,224.166 132.588,223.438 131.836 C 222.709 131.084,222.024 130.469,221.917 130.469 C 221.810 130.469,222.318 131.084,223.047 131.836 M191.406 134.570 C 190.457 135.537,189.769 136.328,189.876 136.328 C 189.984 136.328,190.848 135.537,191.797 134.570 C 192.746 133.604,193.434 132.813,193.327 132.813 C 193.219 132.813,192.355 133.604,191.406 134.570 M177.911 136.035 L 176.367 137.695 178.027 136.151 C 179.571 134.715,179.867 134.375,179.571 134.375 C 179.508 134.375,178.761 135.122,177.911 136.035 M231.055 139.453 C 233.195 141.602,235.034 143.359,235.142 143.359 C 235.249 143.359,233.586 141.602,231.445 139.453 C 229.305 137.305,227.466 135.547,227.358 135.547 C 227.251 135.547,228.914 137.305,231.055 139.453 M149.406 141.504 L 145.898 145.117 149.512 141.610 C 152.868 138.352,153.303 137.891,153.019 137.891 C 152.961 137.891,151.335 139.517,149.406 141.504 M220.703 141.211 C 222.087 142.607,223.308 143.750,223.415 143.750 C 223.522 143.750,222.478 142.607,221.094 141.211 C 219.710 139.814,218.489 138.672,218.382 138.672 C 218.275 138.672,219.319 139.814,220.703 141.211 M254.297 140.342 C 254.297 140.401,255.659 141.763,257.324 143.369 L 260.352 146.289 257.432 143.262 C 254.720 140.450,254.297 140.056,254.297 140.342 M169.717 143.848 L 166.602 147.070 169.824 143.954 C 171.597 142.241,173.047 140.791,173.047 140.732 C 173.047 140.447,172.611 140.855,169.717 143.848 M182.031 143.164 C 181.082 144.131,180.394 144.922,180.501 144.922 C 180.609 144.922,181.473 144.131,182.422 143.164 C 183.371 142.197,184.059 141.406,183.952 141.406 C 183.844 141.406,182.980 142.197,182.031 143.164 M226.563 146.680 C 227.291 147.432,227.976 148.047,228.083 148.047 C 228.190 148.047,227.682 147.432,226.953 146.680 C 226.224 145.928,225.540 145.313,225.433 145.313 C 225.325 145.313,225.834 145.928,226.563 146.680 M175.773 149.121 L 172.461 152.539 175.879 149.227 C 179.053 146.152,179.475 145.703,179.191 145.703 C 179.132 145.703,177.594 147.241,175.773 149.121 M241.016 149.023 C 242.832 150.850,244.407 152.344,244.514 152.344 C 244.621 152.344,243.223 150.850,241.406 149.023 C 239.590 147.197,238.015 145.703,237.908 145.703 C 237.800 145.703,239.199 147.197,241.016 149.023 M262.891 149.023 C 264.058 150.205,265.100 151.172,265.208 151.172 C 265.315 151.172,264.448 150.205,263.281 149.023 C 262.114 147.842,261.072 146.875,260.964 146.875 C 260.857 146.875,261.724 147.842,262.891 149.023 M162.479 150.684 L 161.133 152.148 162.598 150.802 C 163.403 150.062,164.063 149.403,164.063 149.337 C 164.063 149.039,163.732 149.320,162.479 150.684 M157.989 154.785 L 156.445 156.445 158.105 154.901 C 159.649 153.465,159.945 153.125,159.650 153.125 C 159.586 153.125,158.839 153.872,157.989 154.785 M135.327 154.785 L 134.180 156.055 135.449 154.907 C 136.633 153.838,136.898 153.516,136.597 153.516 C 136.529 153.516,135.958 154.087,135.327 154.785 M167.969 156.445 C 166.368 158.057,165.147 159.375,165.254 159.375 C 165.361 159.375,166.759 158.057,168.359 156.445 C 169.960 154.834,171.182 153.516,171.074 153.516 C 170.967 153.516,169.569 154.834,167.969 156.445 M248.633 156.250 C 250.125 157.754,251.434 158.984,251.542 158.984 C 251.649 158.984,250.516 157.754,249.023 156.250 C 247.531 154.746,246.222 153.516,246.115 153.516 C 246.007 153.516,247.140 154.746,248.633 156.250 M271.094 156.836 C 272.261 158.018,273.303 158.984,273.411 158.984 C 273.518 158.984,272.651 158.018,271.484 156.836 C 270.317 155.654,269.275 154.688,269.167 154.688 C 269.060 154.688,269.927 155.654,271.094 156.836 M131.239 158.887 L 128.711 161.523 131.348 158.996 C 132.798 157.605,133.984 156.419,133.984 156.359 C 133.984 156.071,133.587 156.438,131.239 158.887 M196.973 158.082 C 197.349 158.180,197.964 158.180,198.340 158.082 C 198.716 157.984,198.408 157.903,197.656 157.903 C 196.904 157.903,196.597 157.984,196.973 158.082 M209.277 158.103 C 211.050 158.176,213.950 158.176,215.723 158.103 C 217.495 158.031,216.045 157.972,212.500 157.972 C 208.955 157.972,207.505 158.031,209.277 158.103 M241.211 160.938 C 242.050 161.797,242.825 162.500,242.932 162.500 C 243.039 162.500,242.441 161.797,241.602 160.938 C 240.762 160.078,239.988 159.375,239.881 159.375 C 239.773 159.375,240.372 160.078,241.211 160.938 M254.102 161.328 C 254.941 162.188,255.715 162.891,255.823 162.891 C 255.930 162.891,255.331 162.188,254.492 161.328 C 253.653 160.469,252.879 159.766,252.771 159.766 C 252.664 159.766,253.262 160.469,254.102 161.328 M161.705 162.402 L 159.570 164.648 161.816 162.513 C 163.903 160.530,164.241 160.156,163.951 160.156 C 163.890 160.156,162.880 161.167,161.705 162.402 M278.320 163.672 C 279.596 164.961,280.727 166.016,280.835 166.016 C 280.942 166.016,279.987 164.961,278.711 163.672 C 277.435 162.383,276.304 161.328,276.196 161.328 C 276.089 161.328,277.045 162.383,278.320 163.672 M147.056 164.941 L 145.117 166.992 147.168 165.054 C 148.296 163.988,149.219 163.065,149.219 163.003 C 149.219 162.711,148.857 163.036,147.056 164.941 M124.396 165.332 L 122.852 166.992 124.512 165.448 C 126.056 164.012,126.351 163.672,126.056 163.672 C 125.992 163.672,125.245 164.419,124.396 165.332 M249.609 168.945 C 252.073 171.416,254.177 173.438,254.284 173.438 C 254.392 173.438,252.464 171.416,250.000 168.945 C 247.536 166.475,245.433 164.453,245.325 164.453 C 245.218 164.453,247.146 166.475,249.609 168.945 M156.641 166.992 C 155.692 167.959,155.003 168.750,155.111 168.750 C 155.218 168.750,156.082 167.959,157.031 166.992 C 157.980 166.025,158.669 165.234,158.561 165.234 C 158.454 165.234,157.589 166.025,156.641 166.992 M205.224 169.727 C 205.225 172.090,205.289 173.006,205.367 171.763 C 205.445 170.520,205.444 168.586,205.366 167.466 C 205.287 166.346,205.223 167.363,205.224 169.727 M261.719 168.467 C 261.719 168.526,263.081 169.888,264.746 171.494 L 267.773 174.414 264.854 171.387 C 262.142 168.575,261.719 168.181,261.719 168.467 M286.312 171.191 C 287.270 172.212,288.105 173.047,288.167 173.047 C 288.461 173.047,288.150 172.696,286.426 171.077 L 284.570 169.336 286.312 171.191 M139.243 172.363 L 137.305 174.414 139.355 172.476 C 140.483 171.409,141.406 170.487,141.406 170.425 C 141.406 170.133,141.044 170.458,139.243 172.363 M150.377 172.949 L 148.242 175.195 150.488 173.060 C 152.575 171.077,152.913 170.703,152.623 170.703 C 152.562 170.703,151.552 171.714,150.377 172.949 M113.858 175.098 L 110.742 178.320 113.965 175.204 C 115.737 173.491,117.188 172.041,117.188 171.982 C 117.188 171.697,116.752 172.105,113.858 175.098 M310.263 173.438 C 310.263 174.404,310.339 174.800,310.432 174.316 C 310.525 173.833,310.525 173.042,310.432 172.559 C 310.339 172.075,310.263 172.471,310.263 173.438 M208.496 173.727 C 209.839 173.803,212.036 173.803,213.379 173.727 C 214.722 173.650,213.623 173.588,210.938 173.588 C 208.252 173.588,207.153 173.650,208.496 173.727 M269.515 176.270 C 270.473 177.290,271.308 178.125,271.370 178.125 C 271.664 178.125,271.354 177.774,269.629 176.156 L 267.773 174.414 269.515 176.270 M256.250 175.107 C 256.250 175.167,257.612 176.529,259.277 178.135 L 262.305 181.055 259.385 178.027 C 256.673 175.216,256.250 174.822,256.250 175.107 M128.316 182.910 L 122.070 189.258 128.418 183.012 C 134.315 177.210,134.942 176.563,134.663 176.563 C 134.607 176.563,131.751 179.419,128.316 182.910 M94.247 179.688 C 94.247 180.654,94.323 181.050,94.416 180.566 C 94.509 180.083,94.509 179.292,94.416 178.809 C 94.323 178.325,94.247 178.721,94.247 179.688 M273.047 179.883 C 273.776 180.635,274.460 181.250,274.567 181.250 C 274.675 181.250,274.166 180.635,273.438 179.883 C 272.709 179.131,272.024 178.516,271.917 178.516 C 271.810 178.516,272.318 179.131,273.047 179.883 M205.185 180.859 C 205.185 181.826,205.261 182.222,205.354 181.738 C 205.447 181.255,205.447 180.464,205.354 179.980 C 205.261 179.497,205.185 179.893,205.185 180.859 M212.409 179.580 C 213.111 179.667,214.166 179.665,214.753 179.576 C 215.340 179.487,214.766 179.416,213.477 179.418 C 212.188 179.420,211.707 179.493,212.409 179.580 M275.000 181.763 C 275.000 181.830,275.571 182.401,276.270 183.032 L 277.539 184.180 276.392 182.910 C 275.322 181.727,275.000 181.461,275.000 181.763 M310.273 186.328 C 310.273 187.510,310.347 187.993,310.436 187.402 C 310.526 186.812,310.526 185.845,310.436 185.254 C 310.347 184.663,310.273 185.146,310.273 186.328 M292.948 188.574 L 291.602 190.039 293.066 188.693 C 294.430 187.440,294.711 187.109,294.413 187.109 C 294.347 187.109,293.688 187.769,292.948 188.574 M205.223 191.406 C 205.223 193.662,205.287 194.585,205.366 193.457 C 205.445 192.329,205.445 190.483,205.366 189.355 C 205.287 188.228,205.223 189.150,205.223 191.406 M136.445 190.234 C 136.445 191.416,136.518 191.899,136.608 191.309 C 136.697 190.718,136.697 189.751,136.608 189.160 C 136.518 188.569,136.445 189.053,136.445 190.234 M284.766 190.747 C 284.766 190.814,285.337 191.386,286.035 192.017 L 287.305 193.164 286.157 191.895 C 285.088 190.711,284.766 190.445,284.766 190.747 M118.530 192.285 L 117.383 193.555 118.652 192.407 C 119.351 191.776,119.922 191.205,119.922 191.138 C 119.922 190.836,119.600 191.102,118.530 192.285 M268.535 207.617 C 268.535 215.137,268.588 218.158,268.652 214.330 C 268.716 210.503,268.716 204.351,268.652 200.658 C 268.587 196.966,268.535 200.098,268.535 207.617 M188.965 195.208 C 189.878 195.290,191.372 195.290,192.285 195.208 C 193.198 195.126,192.451 195.058,190.625 195.058 C 188.799 195.058,188.052 195.126,188.965 195.208 M197.563 195.198 C 198.049 195.292,198.752 195.288,199.126 195.190 C 199.499 195.092,199.102 195.016,198.242 195.020 C 197.383 195.025,197.077 195.105,197.563 195.198 M209.473 195.213 C 211.353 195.284,214.429 195.284,216.309 195.213 C 218.188 195.141,216.650 195.083,212.891 195.083 C 209.131 195.083,207.593 195.141,209.473 195.213 M136.103 204.492 C 136.103 209.004,136.160 210.796,136.229 208.475 C 136.298 206.154,136.298 202.462,136.229 200.272 C 136.159 198.081,136.103 199.980,136.103 204.492 M223.206 225.000 C 223.206 228.545,223.265 229.995,223.337 228.223 C 223.410 226.450,223.410 223.550,223.337 221.777 C 223.265 220.005,223.206 221.455,223.206 225.000 M136.109 230.078 C 136.109 235.986,136.163 238.403,136.230 235.449 C 136.296 232.495,136.296 227.661,136.230 224.707 C 136.163 221.753,136.109 224.170,136.109 230.078 M223.215 255.859 C 223.215 260.908,223.271 262.974,223.339 260.449 C 223.407 257.925,223.407 253.794,223.339 251.270 C 223.271 248.745,223.215 250.811,223.215 255.859 M121.680 251.953 C 122.519 252.813,123.293 253.516,123.401 253.516 C 123.508 253.516,122.909 252.813,122.070 251.953 C 121.231 251.094,120.457 250.391,120.349 250.391 C 120.242 250.391,120.841 251.094,121.680 251.953 M274.005 261.035 L 272.461 262.695 274.121 261.151 C 275.665 259.715,275.961 259.375,275.665 259.375 C 275.601 259.375,274.854 260.122,274.005 261.035 M130.859 261.133 C 131.588 261.885,132.272 262.500,132.380 262.500 C 132.487 262.500,131.979 261.885,131.250 261.133 C 130.521 260.381,129.837 259.766,129.730 259.766 C 129.622 259.766,130.131 260.381,130.859 261.133 M202.837 288.952 C 203.431 289.042,204.310 289.040,204.791 288.947 C 205.271 288.854,204.785 288.781,203.711 288.784 C 202.637 288.787,202.244 288.862,202.837 288.952 " stroke="none" fill="#72818b" fill-rule="evenodd"></path><path id="path4" d="M0.106 4.688 C 0.106 5.654,0.183 6.050,0.276 5.566 C 0.369 5.083,0.369 4.292,0.276 3.809 C 0.183 3.325,0.106 3.721,0.106 4.688 M0.194 192.188 C 0.194 289.404,0.238 329.175,0.293 280.566 C 0.348 231.958,0.348 152.417,0.293 103.809 C 0.238 55.200,0.194 94.971,0.194 192.188 M197.168 61.616 C 198.296 61.695,200.142 61.695,201.270 61.616 C 202.397 61.537,201.475 61.473,199.219 61.473 C 196.963 61.473,196.040 61.537,197.168 61.616 M207.725 61.615 C 208.644 61.697,210.050 61.696,210.850 61.612 C 211.650 61.528,210.898 61.461,209.180 61.462 C 207.461 61.463,206.806 61.532,207.725 61.615 M191.309 61.994 C 191.792 62.088,192.583 62.088,193.066 61.994 C 193.550 61.901,193.154 61.825,192.188 61.825 C 191.221 61.825,190.825 61.901,191.309 61.994 M213.579 61.995 C 214.065 62.088,214.768 62.085,215.141 61.987 C 215.515 61.889,215.117 61.813,214.258 61.817 C 213.398 61.822,213.093 61.902,213.579 61.995 M231.055 64.676 C 232.129 64.975,233.184 65.204,233.398 65.186 C 234.059 65.129,230.714 64.122,229.883 64.127 C 229.453 64.130,229.980 64.377,231.055 64.676 M172.070 65.046 L 170.508 65.578 172.070 65.346 C 172.930 65.217,174.072 64.979,174.609 64.816 L 175.586 64.520 174.609 64.517 C 174.072 64.515,172.930 64.753,172.070 65.046 M236.523 66.225 C 237.168 66.520,237.959 66.756,238.281 66.750 C 238.604 66.743,238.252 66.501,237.500 66.211 C 235.717 65.524,235.015 65.534,236.523 66.225 M166.797 66.424 C 166.369 66.714,166.527 66.750,167.383 66.558 C 168.819 66.237,169.131 66.014,168.132 66.022 C 167.720 66.025,167.119 66.206,166.797 66.424 M241.406 67.773 C 241.943 68.080,242.646 68.331,242.969 68.330 C 243.291 68.329,242.963 68.072,242.240 67.758 C 240.577 67.036,240.130 67.044,241.406 67.773 M158.008 69.510 C 157.148 69.917,156.621 70.250,156.836 70.252 C 157.369 70.256,160.451 68.813,159.961 68.789 C 159.746 68.779,158.867 69.103,158.008 69.510 M246.444 69.567 C 247.388 69.986,248.230 70.259,248.315 70.174 C 248.484 70.005,245.474 68.733,245.012 68.778 C 244.855 68.793,245.499 69.148,246.444 69.567 M154.297 71.094 C 153.545 71.505,153.105 71.842,153.320 71.842 C 153.535 71.842,154.326 71.505,155.078 71.094 C 155.830 70.682,156.270 70.345,156.055 70.345 C 155.840 70.345,155.049 70.682,154.297 71.094 M250.781 71.284 C 250.781 71.489,253.452 72.667,253.856 72.640 C 254.170 72.619,251.466 71.132,251.074 71.110 C 250.913 71.101,250.781 71.179,250.781 71.284 M149.406 73.213 C 145.836 74.965,146.331 74.999,150.045 73.256 C 151.632 72.512,152.750 71.897,152.531 71.889 C 152.312 71.881,150.906 72.477,149.406 73.213 M254.297 72.816 C 254.297 72.937,255.396 73.585,256.738 74.257 C 258.081 74.928,260.201 76.092,261.449 76.844 C 262.697 77.595,263.806 78.121,263.914 78.013 C 264.023 77.904,263.617 77.557,263.013 77.240 C 262.408 76.923,260.200 75.748,258.105 74.630 C 256.011 73.511,254.297 72.695,254.297 72.816 M140.805 77.930 C 138.687 79.326,136.890 80.469,136.810 80.469 C 136.638 80.469,133.953 82.418,133.398 82.946 C 132.741 83.571,133.967 82.827,137.695 80.336 C 139.629 79.044,142.178 77.403,143.359 76.690 C 144.541 75.976,145.316 75.392,145.082 75.392 C 144.848 75.391,142.924 76.533,140.805 77.930 M264.453 78.246 C 264.453 78.337,265.200 78.905,266.113 79.507 C 267.026 80.109,267.567 80.352,267.315 80.047 C 266.831 79.460,264.453 77.965,264.453 78.246 M269.922 81.993 C 271.474 83.280,275.391 86.006,275.391 85.798 C 275.391 85.593,270.484 81.982,269.531 81.487 C 269.209 81.319,269.385 81.547,269.922 81.993 M128.256 86.650 C 124.810 89.264,120.365 93.107,120.337 93.496 C 120.323 93.679,121.312 92.915,122.534 91.798 C 123.756 90.681,126.129 88.722,127.808 87.444 C 129.486 86.166,130.859 85.041,130.859 84.943 C 130.859 84.677,130.847 84.685,128.256 86.650 M276.953 87.115 C 280.574 90.441,282.828 92.280,282.038 91.265 C 281.727 90.865,280.148 89.485,278.529 88.199 C 276.910 86.912,276.201 86.425,276.953 87.115 M117.176 96.387 L 114.648 99.023 117.285 96.496 C 119.734 94.148,120.100 93.750,119.813 93.750 C 119.753 93.750,118.566 94.937,117.176 96.387 M285.938 95.117 C 286.666 95.869,287.351 96.484,287.458 96.484 C 287.565 96.484,287.057 95.869,286.328 95.117 C 285.599 94.365,284.915 93.750,284.808 93.750 C 284.700 93.750,285.209 94.365,285.938 95.117 M198.608 95.410 L 197.461 96.680 198.730 95.532 C 199.429 94.901,200.000 94.330,200.000 94.263 C 200.000 93.961,199.678 94.227,198.608 95.410 M112.805 100.945 C 111.160 102.817,109.333 105.188,110.222 104.297 C 112.301 102.214,114.901 99.225,114.607 99.256 C 114.415 99.276,113.604 100.036,112.805 100.945 M292.037 101.758 C 292.863 102.832,294.051 104.238,294.678 104.883 C 296.265 106.516,294.073 103.678,291.963 101.367 L 290.536 99.805 292.037 101.758 M277.930 103.125 C 279.422 104.629,280.731 105.859,280.838 105.859 C 280.946 105.859,279.813 104.629,278.320 103.125 C 276.828 101.621,275.519 100.391,275.412 100.391 C 275.304 100.391,276.437 101.621,277.930 103.125 M252.859 110.156 C 252.859 111.553,252.930 112.124,253.017 111.426 C 253.104 110.728,253.104 109.585,253.017 108.887 C 252.930 108.188,252.859 108.760,252.859 110.156 M298.278 109.863 C 299.071 111.099,299.793 112.109,299.882 112.109 C 300.144 112.109,298.730 109.845,297.745 108.685 C 297.245 108.098,297.485 108.628,298.278 109.863 M301.042 114.068 C 301.783 115.323,303.783 117.791,303.247 116.789 C 302.693 115.754,300.684 112.891,300.512 112.891 C 300.421 112.891,300.660 113.421,301.042 114.068 M304.102 118.750 C 304.435 119.395,304.795 119.922,304.903 119.922 C 305.010 119.922,304.825 119.395,304.492 118.750 C 304.159 118.105,303.798 117.578,303.691 117.578 C 303.583 117.578,303.768 118.105,304.102 118.750 M305.888 121.680 C 306.371 122.539,306.933 123.418,307.138 123.633 C 307.723 124.246,306.386 121.771,305.660 120.898 C 305.303 120.469,305.406 120.820,305.888 121.680 M168.536 123.535 L 166.992 125.195 168.652 123.651 C 170.196 122.215,170.492 121.875,170.196 121.875 C 170.133 121.875,169.386 122.622,168.536 123.535 M202.876 124.414 C 202.752 124.736,202.444 125.000,202.191 125.000 C 201.938 125.000,200.770 125.992,199.596 127.203 C 198.422 128.415,197.708 129.267,198.010 129.096 C 198.377 128.888,198.466 128.935,198.279 129.237 C 198.126 129.485,197.770 129.688,197.487 129.688 C 197.205 129.688,196.056 130.698,194.935 131.934 C 193.814 133.169,192.781 134.182,192.640 134.186 C 192.060 134.199,191.409 134.845,191.624 135.193 C 191.751 135.398,191.622 135.518,191.338 135.459 C 191.053 135.400,190.864 135.571,190.918 135.840 C 190.972 136.108,190.796 136.284,190.527 136.230 C 190.259 136.177,190.087 136.366,190.146 136.650 C 190.205 136.935,190.085 137.063,189.878 136.935 C 189.672 136.808,188.939 137.405,188.250 138.262 C 187.561 139.119,186.847 139.728,186.663 139.614 C 186.479 139.500,186.328 139.710,186.328 140.081 C 186.328 140.452,186.218 140.645,186.083 140.510 C 185.949 140.376,185.138 141.048,184.282 142.004 C 183.426 142.960,182.595 143.662,182.435 143.563 C 182.276 143.464,181.724 143.856,181.209 144.434 C 180.504 145.226,180.466 145.343,181.055 144.910 C 181.777 144.379,181.796 144.387,181.300 145.020 C 181.005 145.396,180.516 145.703,180.213 145.703 C 179.911 145.703,179.562 145.967,179.438 146.289 C 179.314 146.611,178.968 146.875,178.669 146.875 C 178.370 146.875,178.125 147.139,178.125 147.461 C 178.125 147.783,177.851 148.047,177.516 148.047 C 177.181 148.047,177.003 148.203,177.121 148.393 C 177.239 148.584,176.968 148.835,176.519 148.953 C 176.000 149.088,175.810 149.340,175.998 149.643 C 176.175 149.930,176.130 150.020,175.886 149.869 C 175.390 149.563,174.500 150.542,174.906 150.947 C 175.065 151.107,174.932 151.178,174.609 151.107 C 174.287 151.035,174.067 151.196,174.121 151.465 C 174.175 151.733,173.999 151.909,173.730 151.855 C 173.462 151.802,173.280 151.960,173.327 152.207 C 173.373 152.454,172.999 152.760,172.495 152.886 C 171.990 153.013,171.481 153.488,171.362 153.941 C 171.243 154.395,170.971 154.658,170.758 154.526 C 170.544 154.394,170.256 154.640,170.119 155.072 C 169.982 155.505,169.612 155.859,169.297 155.859 C 168.982 155.859,168.590 156.224,168.425 156.670 C 168.260 157.115,167.958 157.511,167.754 157.549 C 167.550 157.586,167.431 157.762,167.490 157.939 C 167.549 158.116,167.448 158.169,167.266 158.056 C 167.083 157.943,166.179 158.721,165.256 159.785 C 164.334 160.848,163.363 161.719,163.100 161.719 C 162.420 161.719,161.268 163.085,161.620 163.473 C 161.782 163.651,161.714 163.683,161.470 163.543 C 160.931 163.236,160.045 164.199,160.453 164.649 C 160.612 164.825,160.521 164.842,160.251 164.686 C 159.964 164.521,159.663 164.658,159.526 165.014 C 159.397 165.350,159.047 165.625,158.747 165.625 C 158.448 165.625,158.203 165.889,158.203 166.211 C 158.203 166.533,157.983 166.753,157.715 166.699 C 157.446 166.646,157.275 166.834,157.334 167.119 C 157.393 167.403,157.282 167.538,157.088 167.418 C 156.894 167.298,155.713 168.329,154.464 169.709 C 153.214 171.089,152.050 172.130,151.877 172.023 C 151.704 171.916,151.563 172.081,151.563 172.390 C 151.563 172.699,151.265 173.192,150.902 173.487 C 150.332 173.949,150.286 173.943,150.570 173.438 C 150.751 173.115,150.264 173.451,149.488 174.183 C 148.712 174.915,148.185 175.690,148.318 175.904 C 148.450 176.117,148.371 176.177,148.143 176.036 C 147.914 175.895,147.283 176.307,146.741 176.952 C 146.198 177.597,145.566 178.125,145.338 178.125 C 145.109 178.125,144.922 178.389,144.922 178.711 C 144.922 179.033,144.709 179.297,144.450 179.297 C 144.190 179.297,143.179 180.134,142.204 181.157 C 141.228 182.180,140.254 183.103,140.039 183.208 C 139.824 183.313,139.692 183.530,139.746 183.691 C 139.800 183.853,139.668 183.984,139.453 183.984 C 138.299 183.984,137.009 184.677,137.296 185.142 C 137.411 185.328,137.346 185.539,137.151 185.611 C 136.956 185.683,136.735 188.015,136.660 190.794 C 136.585 193.572,136.574 195.584,136.635 195.264 C 136.697 194.945,137.227 194.400,137.813 194.053 C 138.400 193.707,140.292 192.047,142.017 190.364 C 143.743 188.681,147.847 184.756,151.137 181.641 C 154.426 178.525,158.418 174.714,160.007 173.171 C 161.596 171.629,164.170 169.256,165.725 167.898 C 167.281 166.540,169.726 164.314,171.158 162.951 C 172.589 161.588,174.172 160.194,174.673 159.855 C 176.202 158.820,181.856 153.695,189.207 146.680 C 190.333 145.605,192.030 144.111,192.978 143.359 C 193.926 142.607,195.693 141.113,196.904 140.039 C 203.811 133.913,202.966 134.188,205.984 137.078 C 208.872 139.844,209.925 140.811,213.678 144.141 C 215.251 145.537,217.369 147.471,218.383 148.438 C 219.398 149.404,223.096 152.920,226.602 156.250 C 230.108 159.580,235.331 164.590,238.209 167.383 C 241.086 170.176,243.611 172.413,243.820 172.354 C 244.028 172.295,244.107 172.395,243.995 172.576 C 243.652 173.131,252.193 181.389,252.753 181.043 C 253.061 180.853,253.148 180.897,252.985 181.160 C 252.742 181.554,267.453 196.875,268.075 196.875 C 268.712 196.875,268.393 186.815,267.749 186.568 C 267.413 186.439,267.246 186.159,267.378 185.945 C 267.511 185.730,267.375 185.649,267.075 185.764 C 266.776 185.879,266.284 185.668,265.981 185.294 C 265.501 184.704,265.506 184.656,266.016 184.929 C 266.338 185.101,266.074 184.800,265.430 184.260 C 264.785 183.720,264.122 183.362,263.955 183.465 C 263.789 183.568,263.701 183.427,263.760 183.152 C 263.819 182.878,263.647 182.645,263.379 182.635 C 263.110 182.625,262.883 182.441,262.873 182.227 C 262.846 181.642,260.469 179.299,260.121 179.514 C 259.955 179.616,259.692 179.494,259.537 179.243 C 259.344 178.930,259.428 178.890,259.803 179.116 C 260.270 179.398,260.272 179.349,259.815 178.786 C 259.521 178.422,259.037 178.125,258.741 178.125 C 258.445 178.125,258.203 177.832,258.203 177.474 C 258.203 177.116,258.100 176.926,257.975 177.051 C 257.655 177.371,256.250 176.106,256.250 175.499 C 256.250 175.225,256.005 175.000,255.706 175.000 C 255.407 175.000,255.056 174.725,254.927 174.389 C 254.798 174.053,254.536 173.876,254.344 173.994 C 254.152 174.113,253.755 173.915,253.462 173.554 C 253.005 172.990,253.012 172.939,253.516 173.196 C 253.838 173.361,253.616 173.087,253.022 172.588 C 252.427 172.088,249.598 169.351,246.734 166.504 C 243.870 163.657,241.313 161.328,241.053 161.328 C 240.792 161.328,240.678 161.167,240.800 160.971 C 240.921 160.774,240.836 160.552,240.611 160.477 C 240.386 160.402,237.001 157.178,233.089 153.313 C 225.871 146.180,220.038 140.625,219.767 140.625 C 219.685 140.625,217.885 138.896,215.766 136.782 C 213.648 134.668,211.650 132.778,211.328 132.583 C 211.006 132.387,210.097 131.495,209.309 130.600 C 208.520 129.706,207.773 129.076,207.649 129.200 C 207.524 129.325,207.422 129.165,207.422 128.844 C 207.422 128.075,205.698 126.472,205.279 126.852 C 205.100 127.015,205.071 126.942,205.215 126.690 C 205.367 126.426,204.977 125.875,204.297 125.391 C 203.647 124.928,203.216 124.387,203.339 124.189 C 203.461 123.990,203.458 123.828,203.331 123.828 C 203.204 123.828,202.999 124.092,202.876 124.414 M217.383 126.172 C 218.441 127.246,219.394 128.125,219.502 128.125 C 219.609 128.125,218.832 127.246,217.773 126.172 C 216.715 125.098,215.762 124.219,215.654 124.219 C 215.547 124.219,216.325 125.098,217.383 126.172 M94.512 128.553 C 94.063 129.434,93.762 130.221,93.844 130.303 C 93.926 130.385,94.376 129.664,94.843 128.702 C 95.908 126.511,95.620 126.382,94.512 128.553 M183.771 130.176 L 182.227 131.836 183.887 130.292 C 185.431 128.856,185.726 128.516,185.431 128.516 C 185.367 128.516,184.620 129.263,183.771 130.176 M161.499 130.176 L 160.352 131.445 161.621 130.298 C 162.804 129.229,163.070 128.906,162.768 128.906 C 162.701 128.906,162.130 129.478,161.499 130.176 M310.580 130.664 C 310.580 130.879,310.916 131.670,311.328 132.422 C 311.740 133.174,312.077 133.613,312.077 133.398 C 312.077 133.184,311.740 132.393,311.328 131.641 C 310.916 130.889,310.580 130.449,310.580 130.664 M253.250 136.719 C 253.250 138.115,253.321 138.687,253.408 137.988 C 253.494 137.290,253.494 136.147,253.408 135.449 C 253.321 134.751,253.250 135.322,253.250 136.719 M91.059 135.981 C 90.818 136.671,90.690 137.304,90.773 137.388 C 90.857 137.472,91.122 136.975,91.363 136.285 C 91.603 135.594,91.732 134.961,91.648 134.878 C 91.565 134.794,91.300 135.291,91.059 135.981 M177.323 136.230 L 175.977 137.695 177.441 136.349 C 178.247 135.609,178.906 134.950,178.906 134.884 C 178.906 134.586,178.576 134.867,177.323 136.230 M232.422 140.430 C 233.589 141.611,234.632 142.578,234.739 142.578 C 234.846 142.578,233.979 141.611,232.813 140.430 C 231.646 139.248,230.603 138.281,230.495 138.281 C 230.388 138.281,231.255 139.248,232.422 140.430 M149.609 141.602 C 148.009 143.213,146.787 144.531,146.895 144.531 C 147.002 144.531,148.399 143.213,150.000 141.602 C 151.601 139.990,152.822 138.672,152.715 138.672 C 152.607 138.672,151.210 139.990,149.609 141.602 M314.286 139.453 C 314.430 139.990,314.711 140.693,314.910 141.016 C 315.161 141.423,315.192 141.304,315.010 140.625 C 314.867 140.088,314.586 139.385,314.387 139.063 C 314.136 138.655,314.105 138.774,314.286 139.453 M169.120 144.043 L 167.773 145.508 169.238 144.162 C 170.044 143.421,170.703 142.762,170.703 142.697 C 170.703 142.399,170.373 142.680,169.120 144.043 M315.868 143.945 C 316.007 144.590,316.276 145.381,316.464 145.703 C 316.684 146.078,316.716 145.867,316.554 145.117 C 316.415 144.473,316.146 143.682,315.958 143.359 C 315.738 142.984,315.706 143.195,315.868 143.945 M240.625 148.242 C 241.354 148.994,242.038 149.609,242.145 149.609 C 242.253 149.609,241.744 148.994,241.016 148.242 C 240.287 147.490,239.603 146.875,239.495 146.875 C 239.388 146.875,239.896 147.490,240.625 148.242 M162.280 150.488 L 161.133 151.758 162.402 150.611 C 163.586 149.541,163.851 149.219,163.550 149.219 C 163.482 149.219,162.911 149.790,162.280 150.488 M248.633 155.859 C 249.472 156.719,250.246 157.422,250.354 157.422 C 250.461 157.422,249.863 156.719,249.023 155.859 C 248.184 155.000,247.410 154.297,247.302 154.297 C 247.195 154.297,247.794 155.000,248.633 155.859 M271.484 157.617 C 272.213 158.369,272.897 158.984,273.005 158.984 C 273.112 158.984,272.604 158.369,271.875 157.617 C 271.146 156.865,270.462 156.250,270.355 156.250 C 270.247 156.250,270.756 156.865,271.484 157.617 M187.409 158.096 C 188.111 158.183,189.166 158.181,189.753 158.092 C 190.340 158.002,189.766 157.931,188.477 157.934 C 187.188 157.936,186.707 158.009,187.409 158.096 M221.596 161.914 C 221.599 162.988,221.675 163.381,221.765 162.788 C 221.854 162.194,221.852 161.315,221.759 160.834 C 221.667 160.354,221.593 160.840,221.596 161.914 M254.883 161.719 C 255.722 162.578,256.496 163.281,256.604 163.281 C 256.711 163.281,256.113 162.578,255.273 161.719 C 254.434 160.859,253.660 160.156,253.552 160.156 C 253.445 160.156,254.044 160.859,254.883 161.719 M183.744 167.188 C 183.744 169.873,183.807 170.972,183.883 169.629 C 183.959 168.286,183.959 166.089,183.883 164.746 C 183.807 163.403,183.744 164.502,183.744 167.188 M199.746 166.406 C 199.746 168.232,199.813 168.979,199.895 168.066 C 199.978 167.153,199.978 165.659,199.895 164.746 C 199.813 163.833,199.746 164.580,199.746 166.406 M279.102 164.844 C 279.941 165.703,280.715 166.406,280.823 166.406 C 280.930 166.406,280.331 165.703,279.492 164.844 C 278.653 163.984,277.879 163.281,277.771 163.281 C 277.664 163.281,278.262 163.984,279.102 164.844 M146.463 165.137 L 145.117 166.602 146.582 165.255 C 147.388 164.515,148.047 163.856,148.047 163.791 C 148.047 163.492,147.716 163.773,146.463 165.137 M123.999 166.113 L 122.852 167.383 124.121 166.236 C 124.819 165.604,125.391 165.033,125.391 164.966 C 125.391 164.664,125.068 164.930,123.999 166.113 M262.891 169.263 C 262.891 169.330,263.462 169.901,264.160 170.532 L 265.430 171.680 264.282 170.410 C 263.213 169.227,262.891 168.961,262.891 169.263 M221.583 171.289 C 221.587 172.148,221.667 172.454,221.761 171.968 C 221.854 171.482,221.851 170.779,221.753 170.406 C 221.655 170.032,221.579 170.430,221.583 171.289 M321.591 171.875 C 321.591 172.842,321.667 173.237,321.760 172.754 C 321.853 172.271,321.853 171.479,321.760 170.996 C 321.667 170.513,321.591 170.908,321.591 171.875 M94.231 174.609 C 94.231 175.361,94.312 175.669,94.410 175.293 C 94.508 174.917,94.508 174.302,94.410 173.926 C 94.312 173.550,94.231 173.857,94.231 174.609 M251.172 179.095 C 251.924 179.958,252.198 180.400,251.782 180.078 C 250.822 179.336,248.812 177.329,248.047 176.351 C 247.041 175.065,249.677 177.379,251.172 179.095 M310.683 181.250 C 310.683 183.076,310.751 183.823,310.833 182.910 C 310.915 181.997,310.915 180.503,310.833 179.590 C 310.751 178.677,310.683 179.424,310.683 181.250 M322.011 181.250 C 322.011 183.076,322.079 183.823,322.161 182.910 C 322.243 181.997,322.243 180.503,322.161 179.590 C 322.079 178.677,322.011 179.424,322.011 181.250 M129.871 180.957 L 127.539 183.398 129.980 181.067 C 132.248 178.901,132.601 178.516,132.312 178.516 C 132.252 178.516,131.153 179.614,129.871 180.957 M183.587 181.367 L 183.775 183.398 183.905 181.685 C 183.976 180.743,183.891 179.829,183.716 179.653 C 183.542 179.478,183.483 180.249,183.587 181.367 M187.415 179.585 C 188.551 179.664,190.308 179.664,191.322 179.583 C 192.335 179.503,191.406 179.439,189.258 179.440 C 187.109 179.441,186.280 179.506,187.415 179.585 M199.700 181.641 C 199.700 182.393,199.780 182.700,199.879 182.324 C 199.977 181.948,199.977 181.333,199.879 180.957 C 199.780 180.581,199.700 180.889,199.700 181.641 M221.575 182.422 C 221.575 183.174,221.655 183.481,221.754 183.105 C 221.852 182.729,221.852 182.114,221.754 181.738 C 221.655 181.362,221.575 181.670,221.575 182.422 M82.903 188.672 C 82.903 189.424,82.984 189.731,83.082 189.355 C 83.180 188.979,83.180 188.364,83.082 187.988 C 82.984 187.612,82.903 187.920,82.903 188.672 M183.725 191.016 C 183.725 192.627,183.794 193.286,183.878 192.480 C 183.963 191.675,183.963 190.356,183.878 189.551 C 183.794 188.745,183.725 189.404,183.725 191.016 M321.583 190.430 C 321.587 191.289,321.667 191.595,321.761 191.109 C 321.854 190.623,321.851 189.920,321.753 189.546 C 321.655 189.173,321.579 189.570,321.583 190.430 M83.294 192.188 C 83.294 192.939,83.374 193.247,83.472 192.871 C 83.571 192.495,83.571 191.880,83.472 191.504 C 83.374 191.128,83.294 191.436,83.294 192.188 M188.379 213.952 C 188.970 214.041,189.937 214.041,190.527 213.952 C 191.118 213.862,190.635 213.789,189.453 213.789 C 188.271 213.789,187.788 213.862,188.379 213.952 M195.020 213.956 C 195.825 214.041,197.144 214.041,197.949 213.956 C 198.755 213.872,198.096 213.803,196.484 213.803 C 194.873 213.803,194.214 213.872,195.020 213.956 M204.199 213.954 C 204.897 214.041,206.040 214.041,206.738 213.954 C 207.437 213.868,206.865 213.797,205.469 213.797 C 204.072 213.797,203.501 213.868,204.199 213.954 M316.442 216.051 C 316.178 216.933,316.033 217.726,316.121 217.814 C 316.209 217.902,316.497 217.252,316.761 216.371 C 317.026 215.489,317.170 214.696,317.082 214.608 C 316.994 214.520,316.706 215.169,316.442 216.051 M182.547 219.531 C 182.547 220.928,182.618 221.499,182.704 220.801 C 182.791 220.103,182.791 218.960,182.704 218.262 C 182.618 217.563,182.547 218.135,182.547 219.531 M268.136 228.906 C 268.136 233.740,268.192 235.718,268.260 233.301 C 268.329 230.884,268.329 226.929,268.260 224.512 C 268.192 222.095,268.136 224.072,268.136 228.906 M312.954 225.993 C 312.300 227.430,312.424 227.736,313.132 226.430 C 313.463 225.820,313.660 225.248,313.571 225.159 C 313.481 225.070,313.204 225.445,312.954 225.993 M311.505 229.333 C 311.161 229.998,310.949 230.611,311.034 230.695 C 311.119 230.780,311.480 230.237,311.838 229.487 C 312.641 227.803,312.363 227.674,311.505 229.333 M94.531 232.813 C 94.970 233.672,95.416 234.375,95.524 234.375 C 95.631 234.375,95.360 233.672,94.922 232.813 C 94.483 231.953,94.037 231.250,93.929 231.250 C 93.822 231.250,94.093 231.953,94.531 232.813 M308.284 236.145 C 307.599 237.535,307.122 238.672,307.225 238.672 C 307.486 238.672,309.848 233.937,309.674 233.762 C 309.595 233.683,308.970 234.756,308.284 236.145 M97.583 238.477 C 98.019 239.336,98.665 240.391,99.017 240.820 C 99.370 241.250,99.179 240.723,98.593 239.648 C 97.282 237.244,96.491 236.327,97.583 238.477 M182.558 243.750 C 182.558 245.576,182.626 246.323,182.708 245.410 C 182.790 244.497,182.790 243.003,182.708 242.090 C 182.626 241.177,182.558 241.924,182.558 243.750 M267.706 246.289 C 267.708 247.793,267.779 248.360,267.863 247.550 C 267.948 246.739,267.946 245.509,267.860 244.816 C 267.774 244.122,267.705 244.785,267.706 246.289 M300.962 248.145 C 300.360 249.058,300.117 249.598,300.422 249.346 C 301.009 248.862,302.504 246.484,302.222 246.484 C 302.131 246.484,301.564 247.231,300.962 248.145 M299.331 250.488 C 297.637 252.702,296.744 254.023,297.079 253.821 C 297.540 253.542,300.134 250.000,299.877 250.000 C 299.782 250.000,299.537 250.220,299.331 250.488 M262.841 256.348 C 262.469 257.075,262.708 258.099,263.205 257.908 C 263.640 257.741,263.710 257.829,263.466 258.234 C 263.179 258.710,263.226 258.712,263.802 258.245 C 264.170 257.946,264.381 257.611,264.271 257.500 C 264.160 257.389,264.268 257.059,264.512 256.765 C 264.861 256.344,264.820 256.284,264.313 256.478 C 263.960 256.613,263.672 256.881,263.672 257.073 C 263.672 257.265,263.477 257.422,263.239 257.422 C 263.002 257.422,262.908 257.158,263.032 256.836 C 263.210 256.372,263.044 255.949,262.841 256.348 M292.969 258.500 C 292.969 258.664,290.864 260.993,288.291 263.676 C 282.920 269.277,282.122 270.381,286.748 265.811 C 290.785 261.822,293.949 258.203,293.398 258.203 C 293.162 258.203,292.969 258.337,292.969 258.500 M145.313 259.798 C 144.854 260.118,144.918 260.154,145.605 259.960 C 146.656 259.665,146.745 260.055,145.801 260.818 C 145.187 261.315,145.210 261.326,146.020 260.933 C 146.516 260.691,146.857 260.297,146.777 260.057 C 146.567 259.427,145.988 259.325,145.313 259.798 M259.238 259.951 C 259.117 260.265,259.168 260.614,259.351 260.727 C 259.534 260.841,259.782 260.676,259.903 260.362 C 260.023 260.048,259.972 259.698,259.789 259.585 C 259.607 259.472,259.358 259.637,259.238 259.951 M113.672 260.528 C 113.672 260.864,120.268 267.375,120.398 267.167 C 120.458 267.071,118.970 265.486,117.090 263.644 C 115.210 261.803,113.672 260.400,113.672 260.528 M182.558 268.750 C 182.558 270.576,182.626 271.323,182.708 270.410 C 182.790 269.497,182.790 268.003,182.708 267.090 C 182.626 266.177,182.558 266.924,182.558 268.750 M249.919 265.916 C 250.306 266.051,250.318 266.219,249.968 266.640 C 249.640 267.035,249.636 267.188,249.952 267.188 C 250.193 267.188,250.391 266.991,250.391 266.751 C 250.391 266.511,250.713 266.399,251.107 266.502 C 251.501 266.605,251.823 266.494,251.822 266.255 C 251.822 266.016,251.280 265.802,250.618 265.780 C 249.956 265.758,249.641 265.820,249.919 265.916 M244.409 269.300 C 243.385 269.753,243.357 269.824,243.996 270.342 C 244.585 270.821,244.634 270.821,244.347 270.344 C 244.097 269.929,244.175 269.851,244.658 270.037 C 245.056 270.189,245.267 270.103,245.210 269.810 C 245.159 269.547,245.501 269.349,245.977 269.365 C 246.449 269.381,246.747 269.249,246.637 269.072 C 246.374 268.645,245.742 268.710,244.409 269.300 M281.420 270.417 L 279.883 272.069 281.441 270.703 C 282.298 269.951,283.074 269.292,283.166 269.238 C 283.258 269.185,283.249 269.056,283.145 268.952 C 283.042 268.849,282.265 269.508,281.420 270.417 M124.580 270.832 C 125.575 271.928,125.789 272.063,125.769 271.582 C 125.762 271.421,125.279 270.952,124.695 270.539 L 123.633 269.789 124.580 270.832 M241.211 270.703 C 240.904 271.200,241.809 271.200,242.578 270.703 C 243.054 270.395,243.004 270.323,242.308 270.318 C 241.837 270.315,241.344 270.488,241.211 270.703 M234.766 273.438 C 234.245 273.774,234.245 273.816,234.766 273.816 C 235.088 273.816,235.615 273.646,235.938 273.438 C 236.458 273.101,236.458 273.059,235.938 273.059 C 235.615 273.059,235.088 273.229,234.766 273.438 M129.477 274.697 C 130.130 275.282,130.820 275.765,131.010 275.771 C 131.200 275.777,130.848 275.398,130.228 274.930 C 128.497 273.622,128.162 273.518,129.477 274.697 M274.414 276.011 L 273.242 277.018 274.512 276.178 C 275.210 275.715,275.781 275.262,275.781 275.169 C 275.781 274.876,275.616 274.978,274.414 276.011 M131.641 276.280 C 131.641 276.355,132.212 276.834,132.910 277.345 C 133.696 277.920,133.969 278.014,133.626 277.592 C 133.106 276.952,131.641 275.983,131.641 276.280 M269.233 279.503 C 268.108 280.260,267.188 280.965,267.188 281.069 C 267.188 281.173,268.154 280.616,269.336 279.831 C 271.213 278.585,271.765 278.125,271.382 278.125 C 271.325 278.125,270.358 278.745,269.233 279.503 M135.547 279.052 C 135.547 279.136,136.162 279.673,136.914 280.247 C 137.666 280.820,138.279 281.149,138.276 280.977 C 138.274 280.805,137.659 280.267,136.909 279.782 C 136.160 279.296,135.547 278.968,135.547 279.052 M265.332 282.076 C 264.001 282.929,263.570 283.501,264.746 282.855 C 265.642 282.362,267.046 281.276,266.797 281.269 C 266.689 281.266,266.030 281.629,265.332 282.076 M261.621 284.255 C 260.601 284.823,259.827 285.348,259.902 285.423 C 260.059 285.580,263.672 283.608,263.672 283.365 C 263.672 283.120,263.616 283.145,261.621 284.255 M250.000 290.039 C 249.463 290.346,249.199 290.597,249.414 290.597 C 249.629 290.597,250.244 290.346,250.781 290.039 C 251.318 289.732,251.582 289.481,251.367 289.481 C 251.152 289.481,250.537 289.732,250.000 290.039 M157.031 290.810 C 157.031 291.119,159.863 292.220,160.086 291.997 C 160.196 291.887,160.191 291.797,160.074 291.797 C 159.957 291.797,159.224 291.531,158.446 291.206 C 157.668 290.881,157.031 290.702,157.031 290.810 M246.680 291.434 C 245.820 291.848,245.557 292.076,246.094 291.943 C 247.200 291.667,249.230 290.649,248.633 290.670 C 248.418 290.677,247.539 291.021,246.680 291.434 M161.719 292.709 C 161.719 292.810,162.286 293.090,162.979 293.332 C 163.673 293.573,164.068 293.610,163.858 293.414 C 163.413 292.997,161.719 292.439,161.719 292.709 M170.508 295.703 C 170.938 295.888,171.553 296.039,171.875 296.039 C 172.244 296.039,172.172 295.915,171.680 295.703 C 171.250 295.518,170.635 295.367,170.313 295.367 C 169.943 295.367,170.015 295.492,170.508 295.703 M232.617 296.094 C 232.125 296.305,232.053 296.429,232.422 296.429 C 232.744 296.429,233.359 296.278,233.789 296.094 C 234.281 295.882,234.354 295.758,233.984 295.758 C 233.662 295.758,233.047 295.909,232.617 296.094 M195.410 299.889 C 196.001 299.979,196.968 299.979,197.559 299.889 C 198.149 299.800,197.666 299.726,196.484 299.726 C 195.303 299.726,194.819 299.800,195.410 299.889 M0.106 376.563 C 0.106 377.529,0.183 377.925,0.276 377.441 C 0.369 376.958,0.369 376.167,0.276 375.684 C 0.183 375.200,0.106 375.596,0.106 376.563 " stroke="none" fill="#d9e5e9" fill-rule="evenodd"></path></g></svg>