<?xml version="1.0" standalone="no"?>
<!DOCTYPE svg PUBLIC "-//W3C//DTD SVG 20010904//EN"
 "http://www.w3.org/TR/2001/REC-SVG-20010904/DTD/svg10.dtd">
<svg version="1.0" xmlns="http://www.w3.org/2000/svg"
 width="1024.000000pt" height="1024.000000pt" viewBox="0 0 1024.000000 1024.000000"
 preserveAspectRatio="xMidYMid meet">

<g transform="translate(0.000000,1024.000000) scale(0.100000,-0.100000)"
fill="#000000" stroke="none">
<path d="M5285 8909 c-50 -25 -100 -72 -132 -126 -25 -43 -24 -63 3 -63 17 0
17 -9 0 -80 l-13 -55 -54 3 c-89 5 -216 -15 -252 -40 -58 -40 -240 -205 -338
-305 -213 -219 -249 -272 -257 -384 -3 -46 0 -74 10 -93 13 -25 12 -40 -7
-139 -12 -62 -30 -165 -41 -231 l-19 -118 -105 -81 c-221 -171 -256 -203 -279
-259 -11 -29 -24 -71 -29 -93 l-8 -40 -365 -3 -365 -2 -119 -120 -120 -120
580 0 580 0 -51 -50 -50 -51 -585 0 -584 0 -128 -122 c-70 -67 -127 -125 -127
-129 0 -5 263 -8 584 -8 l583 0 -50 -50 -50 -50 -587 0 -587 0 -199 -197 -199
-198 840 -3 840 -2 200 202 c111 112 448 454 751 761 l550 558 275 -278 c151
-153 394 -399 539 -548 146 -148 359 -366 475 -483 l210 -212 692 2 693 3 -28
30 c-15 17 -115 125 -222 240 -107 116 -217 235 -245 265 -27 30 -86 93 -130
140 -45 47 -107 114 -140 150 -32 36 -115 126 -184 200 -205 220 -336 362
-370 403 l-33 37 -537 0 -536 0 -164 162 c-133 133 -161 165 -152 178 40 56
51 91 51 169 0 77 -1 80 -33 108 -19 17 -59 36 -93 45 -32 9 -98 26 -146 38
-49 13 -88 26 -88 29 1 7 222 176 232 176 4 0 32 -36 63 -80 98 -138 113 -149
244 -191 141 -45 342 -121 356 -135 7 -7 -2 -20 -27 -41 -44 -34 -48 -62 -17
-102 33 -42 71 -36 109 18 23 31 41 46 64 50 17 3 53 25 79 48 45 38 49 44 45
81 -4 39 -2 41 112 149 114 109 115 110 155 103 41 -6 95 -50 95 -77 0 -54 74
-76 124 -37 40 32 33 58 -34 124 -34 34 -58 66 -55 73 7 18 -16 59 -69 124
-71 87 -189 139 -247 108 -28 -16 -23 -27 21 -50 23 -12 49 -35 60 -52 l19
-31 -25 -29 c-13 -16 -24 -37 -24 -46 0 -9 -48 -65 -105 -124 -97 -100 -108
-108 -143 -108 -21 0 -43 -5 -49 -11 -8 -8 -38 6 -109 49 -55 32 -145 83 -202
112 -92 47 -142 87 -142 111 0 7 -102 187 -140 246 -12 19 -12 24 5 43 17 19
26 20 85 14 63 -6 68 -5 87 20 11 14 33 57 49 96 28 69 30 71 59 66 72 -14
111 -16 125 -7 20 14 4 29 -62 57 l-53 22 -16 75 c-18 89 -48 133 -111 165
-59 29 -156 30 -213 1z m-485 -1330 c69 -6 129 -15 134 -20 5 -5 -152 -170
-364 -384 -419 -420 -417 -419 -438 -324 -7 29 -11 53 -10 54 2 1 32 21 68 45
95 64 215 156 250 193 17 17 44 57 60 88 31 61 95 244 111 321 10 46 13 49 37
44 15 -3 83 -11 152 -17z"/>
<path d="M4790 6315 l0 -135 135 0 135 0 0 135 0 135 -135 0 -135 0 0 -135z"/>
<path d="M5150 6313 l0 -138 130 3 130 3 0 135 0 134 -130 0 -130 0 0 -137z"/>
<path d="M4797 6083 c-2 -5 -4 -66 -3 -138 l1 -130 133 -3 132 -3 0 141 0 140
-129 0 c-72 0 -132 -3 -134 -7z"/>
<path d="M5150 5950 l0 -141 133 3 132 3 0 135 0 135 -132 3 -133 3 0 -141z"/>
<path d="M2962 5284 c-99 -51 -122 -180 -46 -264 59 -65 144 -76 220 -29 38
23 74 91 74 139 0 46 -35 115 -71 141 -41 29 -133 36 -177 13z"/>
<path d="M1530 4510 l0 -770 160 0 160 0 0 243 0 243 208 1 c234 1 300 12 418
68 161 78 253 243 254 457 0 183 -68 325 -199 416 -145 100 -217 112 -657 112
l-344 0 0 -770z m690 470 c135 -37 190 -105 190 -237 0 -86 -26 -143 -85 -183
-68 -47 -138 -60 -317 -60 l-158 0 0 243 c0 134 2 246 4 248 10 10 325 0 366
-11z"/>
<path d="M4720 4510 l0 -770 150 0 150 0 0 533 0 532 46 -80 c25 -44 58 -102
73 -130 180 -324 363 -650 370 -658 12 -13 33 20 156 238 123 218 148 262 285
505 l82 145 -6 -542 -6 -543 155 0 155 0 0 770 0 770 -177 0 -178 0 -23 -43
c-13 -23 -67 -121 -119 -217 -53 -96 -130 -236 -171 -310 -41 -74 -89 -161
-106 -192 -16 -32 -33 -58 -36 -58 -5 0 -20 26 -97 170 -25 47 -74 137 -108
200 -35 63 -104 189 -154 280 l-90 165 -175 3 -176 2 0 -770z"/>
<path d="M3808 4884 c-200 -48 -387 -232 -432 -424 -34 -141 -13 -325 50 -441
66 -120 212 -239 348 -282 102 -32 271 -31 374 2 85 27 201 100 255 160 101
112 147 224 155 374 9 176 -43 318 -161 443 -77 82 -182 144 -288 169 -79 18
-224 18 -301 -1z m271 -269 c61 -30 124 -102 146 -163 86 -246 -63 -488 -289
-470 -104 9 -181 62 -234 163 -25 45 -27 60 -27 160 0 91 4 118 21 156 29 62
88 125 143 154 66 34 173 35 240 0z"/>
<path d="M6980 4894 c-75 -15 -178 -48 -233 -75 -101 -51 -97 -43 -97 -191 l0
-129 28 19 c52 37 168 92 233 109 38 10 102 17 159 17 84 1 102 -2 151 -26 65
-32 99 -83 99 -146 l0 -41 -182 1 c-254 2 -365 -27 -475 -126 -66 -60 -99
-117 -114 -199 -27 -147 38 -274 176 -345 51 -25 177 -52 247 -52 108 0 242
50 311 115 l37 36 0 -60 0 -61 150 0 150 0 0 395 c0 254 -4 413 -11 447 -23
106 -77 181 -174 243 -87 55 -135 67 -290 70 -77 2 -151 1 -165 -1z m232 -666
l108 -12 0 -43 c0 -123 -117 -221 -275 -231 -135 -8 -194 25 -203 116 -8 83
40 142 137 168 60 16 102 17 233 2z"/>
<path d="M8445 4886 c-27 -7 -68 -22 -90 -33 -40 -21 -117 -95 -149 -143 -15
-24 -16 -21 -16 70 l0 95 -155 0 -155 0 0 -573 0 -573 153 3 152 3 5 315 c5
314 5 315 31 371 36 76 77 120 146 155 50 25 69 29 141 29 l82 0 0 148 0 147
-47 -1 c-27 0 -70 -6 -98 -13z"/>
<path d="M2890 4310 l0 -570 150 0 150 0 0 570 0 570 -150 0 -150 0 0 -570z"/>
<path d="M3840 3145 l0 -35 85 0 c47 0 85 -2 85 -5 0 -3 -38 -56 -85 -119 -63
-86 -85 -122 -85 -145 l0 -31 140 0 140 0 0 35 0 35 -85 0 c-47 0 -85 3 -85 6
0 3 38 56 85 119 64 85 85 121 85 144 l0 31 -140 0 -140 0 0 -35z"/>
<path d="M4376 3172 c-5 -9 -146 -354 -146 -359 0 -2 18 -3 40 -3 38 0 41 3
56 40 l16 41 81 -3 80 -3 12 -35 c11 -32 15 -35 55 -38 32 -3 41 0 37 10 -2 7
-32 79 -65 160 -34 80 -64 158 -68 172 -5 23 -11 26 -49 26 -24 0 -46 -3 -49
-8z m70 -144 c10 -29 21 -56 22 -60 2 -4 -20 -8 -48 -8 -28 0 -50 3 -48 8 2 4
12 31 23 60 11 28 22 52 25 52 3 0 15 -23 26 -52z"/>
<path d="M4725 2995 l0 -185 43 0 42 0 0 53 c1 38 6 59 22 77 12 14 23 20 25
14 2 -6 21 -34 41 -62 20 -28 42 -58 47 -67 8 -12 22 -16 58 -13 l48 3 -71 98
c-38 53 -70 100 -70 103 0 8 112 138 123 142 22 10 1 22 -41 22 -48 0 -48 0
-115 -81 l-67 -81 0 81 0 81 -42 0 -43 0 0 -185z"/>
<path d="M5200 3100 c0 -64 -3 -80 -15 -80 -11 0 -15 -11 -15 -40 0 -29 4 -40
15 -40 12 0 15 -14 15 -65 l0 -65 125 0 125 0 0 35 0 35 -85 0 -85 0 0 49 c0
48 1 49 40 65 38 15 40 18 40 61 l0 46 -30 -16 c-45 -23 -50 -20 -50 40 l0 55
-40 0 -40 0 0 -80z"/>
<path d="M5691 3158 c-5 -13 -36 -91 -70 -175 -33 -83 -61 -156 -61 -162 0 -6
17 -11 38 -11 36 0 40 3 52 40 l13 40 79 0 78 0 16 -40 c15 -37 19 -40 55 -40
21 0 39 1 39 3 0 2 -18 48 -40 103 -23 54 -55 136 -73 182 l-31 82 -43 0 c-36
0 -45 -4 -52 -22z m75 -130 c10 -29 21 -56 22 -60 2 -4 -19 -8 -46 -8 l-49 0
21 60 c12 33 23 60 27 60 3 0 14 -23 25 -52z"/>
<path d="M6050 2995 l0 -185 98 0 c111 0 147 13 195 73 52 64 49 171 -6 234
-45 51 -81 63 -192 63 l-95 0 0 -185z m220 78 c29 -33 32 -41 27 -87 -3 -40
-11 -55 -36 -78 -26 -23 -40 -28 -86 -28 l-55 0 0 115 0 115 59 0 c55 0 61 -2
91 -37z"/>
<path d="M5820 2619 c-12 -16 -20 -33 -17 -36 11 -11 52 6 87 36 l35 30 -42 1
c-35 0 -45 -5 -63 -31z"/>
<path d="M2555 2541 c-108 -49 -146 -183 -80 -282 64 -97 202 -119 282 -45
l36 33 -32 22 c-29 21 -32 21 -48 6 -87 -88 -229 21 -180 138 29 68 113 92
174 49 l28 -20 29 24 c24 21 26 27 14 41 -41 49 -152 67 -223 34z"/>
<path d="M4213 2540 c-84 -51 -69 -149 29 -189 83 -34 103 -45 106 -64 9 -47
-47 -60 -112 -28 -35 18 -40 19 -62 4 -29 -19 -30 -25 -5 -47 47 -43 140 -57
194 -30 65 33 85 95 50 154 -15 27 -34 38 -126 74 -42 17 -55 39 -37 61 16 19
57 19 94 0 26 -14 31 -14 48 1 28 26 22 43 -24 64 -55 25 -114 25 -155 0z"/>
<path d="M5042 2553 c-37 -8 -109 -83 -121 -128 -16 -58 -14 -90 10 -140 57
-122 200 -151 298 -61 123 114 52 324 -112 332 -29 1 -62 0 -75 -3z m103 -77
c88 -37 86 -179 -3 -222 -95 -45 -191 85 -130 176 23 34 60 60 86 60 7 0 28
-6 47 -14z"/>
<path d="M5764 2546 c-94 -41 -86 -146 15 -191 93 -42 106 -50 109 -68 9 -47
-47 -60 -112 -27 -36 18 -40 18 -62 2 -29 -21 -26 -31 15 -59 68 -46 180 -38
222 15 27 35 25 94 -5 129 -13 15 -52 39 -86 53 -71 28 -91 50 -71 74 17 20
57 20 95 1 27 -14 31 -14 52 6 28 27 24 36 -30 60 -48 22 -99 24 -142 5z"/>
<path d="M6934 2546 c-41 -18 -64 -52 -64 -94 0 -43 50 -96 106 -111 50 -14
84 -37 84 -60 0 -44 -52 -53 -115 -21 -22 11 -40 20 -41 20 0 0 -12 -9 -25
-21 l-24 -21 30 -24 c97 -79 255 -41 255 61 0 68 -38 109 -120 130 -14 3 -36
15 -50 25 -52 40 17 78 81 45 31 -16 32 -16 56 8 l25 24 -31 22 c-40 28 -124
37 -167 17z"/>
<path d="M8123 2545 c-41 -18 -67 -66 -58 -111 7 -41 49 -75 123 -99 40 -13
53 -22 58 -41 12 -49 -42 -71 -96 -39 -14 8 -31 17 -38 21 -7 4 -24 -4 -38
-17 l-25 -24 25 -22 c48 -41 131 -54 190 -29 45 19 66 52 66 103 0 56 -29 87
-109 115 -35 13 -69 30 -74 40 -26 40 53 66 101 32 20 -14 24 -13 47 3 32 24
28 33 -25 61 -50 25 -100 28 -147 7z"/>
<path d="M1270 2365 l0 -185 105 0 c154 0 195 22 195 105 0 27 -8 44 -29 65
l-28 29 20 20 c32 32 27 89 -12 123 -30 27 -35 28 -141 28 l-110 0 0 -185z
m194 109 c19 -7 21 -45 4 -62 -7 -7 -36 -12 -65 -12 l-53 0 0 40 0 40 49 0
c27 0 56 -3 65 -6z m16 -154 c23 -23 24 -30 8 -52 -9 -12 -33 -18 -76 -20
l-62 -3 0 48 0 47 55 0 c42 0 60 -5 75 -20z"/>
<path d="M1688 2365 l-3 -185 128 0 127 0 0 35 0 35 -87 0 -88 0 3 150 4 150
-41 0 -40 0 -3 -185z"/>
<path d="M2085 2378 c-37 -95 -69 -179 -72 -185 -4 -9 7 -13 35 -13 37 0 41 3
56 40 l16 40 78 0 79 0 13 -40 c12 -37 16 -40 52 -40 21 0 38 3 38 7 0 4 -32
87 -72 185 l-72 178 -42 0 -41 0 -68 -172z m130 35 c32 -77 32 -80 -19 -85
-51 -4 -52 -2 -30 61 25 74 28 75 49 24z"/>
<path d="M2897 2388 c2 -90 3 -173 3 -185 0 -20 5 -23 35 -23 l35 0 0 75 0 75
86 0 86 0 -5 -75 -5 -75 39 0 39 0 0 185 0 185 -39 0 -39 0 5 -75 4 -75 -85 0
-86 0 0 75 0 75 -37 0 -38 0 2 -162z"/>
<path d="M3437 2533 c-3 -10 -34 -93 -70 -185 l-65 -168 43 0 c40 0 42 2 54
40 l12 40 78 0 78 0 16 -40 c14 -37 18 -40 55 -40 l40 0 -29 73 c-15 39 -48
122 -72 182 l-44 110 -45 3 c-37 2 -46 0 -51 -15z m81 -145 l21 -58 -50 0
c-37 0 -49 3 -46 13 3 6 14 36 23 65 10 29 21 49 24 45 4 -5 16 -34 28 -65z"/>
<path d="M3770 2366 l0 -186 40 0 40 0 0 60 c0 53 2 60 20 60 12 0 34 -21 62
-60 42 -59 42 -60 91 -60 l49 0 -47 66 c-26 36 -45 67 -43 68 1 2 14 9 26 15
59 31 64 136 11 187 -29 28 -35 29 -140 32 l-109 4 0 -186z m192 97 c22 -20
23 -51 1 -75 -11 -13 -30 -18 -67 -18 l-51 0 3 55 4 55 46 0 c28 0 52 -6 64
-17z"/>
<path d="M4540 2364 l0 -185 38 3 37 3 0 52 c0 40 5 57 21 73 l20 21 54 -76
54 -75 49 0 c38 0 47 3 40 13 -6 6 -41 54 -78 105 l-68 94 44 46 c25 26 57 62
74 80 l29 32 -55 -1 -54 0 -60 -74 c-33 -41 -62 -74 -65 -74 -3 -1 -5 33 -3
74 l2 75 -39 0 -40 0 0 -186z"/>
<path d="M6080 2365 l0 -185 125 0 125 0 0 35 0 35 -85 0 -85 0 0 150 0 150
-40 0 -40 0 0 -185z"/>
<path d="M6430 2433 c0 -171 17 -216 93 -248 50 -21 103 -19 154 6 66 32 76
60 81 222 l4 137 -40 0 -40 0 -4 -135 c-3 -152 -8 -163 -74 -172 -30 -4 -45 0
-64 15 -24 19 -25 25 -28 156 l-4 136 -39 0 -39 0 0 -117z"/>
<path d="M7285 2378 c-37 -95 -69 -179 -72 -185 -4 -9 7 -13 35 -13 37 0 41 3
56 40 l16 40 78 0 79 0 12 -40 c11 -38 14 -40 52 -40 29 0 40 4 36 13 -2 6
-35 90 -72 185 l-68 172 -42 0 -42 0 -68 -172z m154 -35 c1 -9 -14 -13 -44
-13 -25 0 -45 3 -45 8 0 10 30 93 38 106 6 10 50 -77 51 -101z"/>
<path d="M7670 2365 l0 -185 40 0 40 0 0 59 c0 40 4 61 13 64 19 7 25 1 75
-65 41 -56 44 -58 88 -58 51 0 51 -2 -7 76 -43 56 -46 64 -25 64 8 0 26 14 40
31 20 23 26 42 26 78 0 92 -45 121 -190 121 l-100 0 0 -185z m198 103 c17 -17
15 -64 -4 -82 -10 -10 -33 -16 -65 -16 l-49 0 0 55 0 55 53 0 c29 0 58 -5 65
-12z"/>
<path d="M8440 2365 l0 -185 40 0 40 0 0 56 c0 52 14 84 38 84 5 0 30 -31 57
-70 l48 -70 49 0 49 0 -47 68 c-27 37 -61 84 -76 104 l-29 37 50 53 c27 29 59
66 71 81 l22 28 -53 -3 c-53 -3 -54 -4 -114 -76 l-60 -72 -3 75 -3 75 -39 0
-40 0 0 -185z"/>
<path d="M8850 2364 l0 -185 38 3 37 3 3 183 2 182 -40 0 -40 0 0 -186z"/>
<path d="M5400 2345 l0 -36 88 3 87 3 3 33 3 32 -90 0 -91 0 0 -35z"/>
<path d="M2810 1710 l0 -30 2310 0 2310 0 0 30 0 30 -2310 0 -2310 0 0 -30z"/>
</g>
</svg>
